<svg width="97" height="120" viewBox="0 0 97 120" fill="none" xmlns="http://www.w3.org/2000/svg">
<path d="M96.1888 7.06045C96.0777 6.75476 95.7442 6.58802 95.4385 6.69918C95.3829 6.72697 88.4076 9.25588 80.2094 8.08869C71.3999 6.83813 55.0037 3.19761 50.9185 1.36345C47.4725 -0.192804 46.3887 -0.109423 43.4429 0.140689C42.5814 0.22406 41.5254 0.307427 40.1915 0.363007C37.468 0.501959 34.022 0.390801 30.9929 0.27964C27.5747 0.168479 24.6012 0.0850947 23.4062 0.335207C22.5447 0.529739 21.1552 1.14113 19.4044 1.91925C16.5976 3.16982 13.096 4.72608 10.845 4.86503C9.92791 4.92061 8.95525 5.05956 8.06596 5.28188C7.34341 5.25409 6.56528 5.36525 5.78716 5.55979V5.53199C5.78716 5.33745 3.20266 6.11558 1.34072 7.11603C0.59038 7.53289 0.201324 7.97754 1.17398 8.61671C2.06327 9.17252 3.28604 9.7839 4.50881 9.86727C4.39765 9.81169 4.31428 9.72832 4.28649 9.61716H4.31428C4.45323 9.7839 4.59218 9.95063 4.73113 10.1174C5.676 11.09 7.9548 12.6463 12.5124 12.2572C15.9306 11.9793 18.3761 11.1178 20.3493 10.3953C22.1556 9.7561 23.5729 9.25588 24.9902 9.4782C26.3519 9.70053 27.9638 9.83948 29.4089 9.95064C31.0207 10.0896 33.0494 10.2563 33.4107 10.5064C33.7719 10.7288 34.2444 11.0623 34.6056 11.3402C32.5214 12.1183 27.8526 13.8691 26.2686 14.7861C26.1574 14.8417 15.7639 21.0112 12.3179 23.2066C10.7616 23.7624 9.34431 24.5683 8.28828 25.3186C8.31607 25.2909 8.31608 25.2631 8.31608 25.2353C8.31608 25.2353 3.3972 28.3478 4.23091 29.2371C5.42589 30.4876 7.76026 30.571 9.20535 29.9596C9.73337 30.2931 10.4003 30.5154 11.3174 30.5154C12.957 30.5154 15.4304 29.8484 19.4044 27.9865C20.3492 28.32 21.4886 28.5979 22.7948 28.9036L23.0727 28.9592C23.295 29.0147 23.5451 29.0147 23.823 29.0147C24.1565 29.0147 24.5456 28.987 24.9346 28.9314C24.9346 28.9314 24.9346 28.9314 24.9346 28.9592C23.823 29.904 21.9611 31.4325 20.4048 32.7664C19.988 32.822 19.3488 33.2945 17.2923 35.0174C17.0144 35.2398 16.7365 35.4899 16.4586 35.7122C14.4855 37.3518 13.7908 38.4079 14.152 39.2138C14.4021 39.7974 15.0969 39.9641 15.8194 39.9641C16.1807 39.9641 16.5142 39.9363 16.8477 39.8807C17.9037 39.7418 18.5151 39.4361 18.793 39.2694C19.0987 39.3527 19.46 39.4361 19.8768 39.4639C19.9324 39.4639 19.9602 39.4639 20.0158 39.4639C22.9893 39.4639 31.382 32.0439 33.4663 30.1819C34.2444 30.1819 35.0225 30.1264 35.8562 30.043C35.9952 30.0152 36.1619 30.0152 36.3008 29.9874C34.4945 31.8771 30.9373 35.4065 29.1032 36.5737C28.0471 37.2407 27.3802 37.8798 27.0467 38.519C26.3519 38.9637 25.018 39.9641 25.0458 40.909C25.0458 41.2702 25.2403 41.6037 25.6016 41.8261C26.1018 42.1318 26.602 42.2429 27.0467 42.2429C27.6581 42.2429 28.1583 42.0206 28.464 41.8538C28.6863 41.9372 28.9086 41.9928 29.1865 41.9928C29.2977 41.9928 29.3811 41.9928 29.4922 41.965C31.7988 41.7149 35.8562 38.5468 36.412 37.7965C36.94 37.1017 43.7486 32.5441 47.4169 30.6544C49.529 29.5706 51.0019 29.7095 54.9203 30.1264C57.0046 30.3487 59.867 30.6544 63.8132 30.8489C71.0387 31.2102 71.9835 30.5988 72.8728 30.0152C73.2897 29.7651 73.6231 29.515 75.096 29.4594C84.3224 29.0703 91.4923 26.5692 91.5757 26.5414C91.8813 26.4303 92.0481 26.0968 91.9369 25.7911C91.8258 25.4854 91.4923 25.3187 91.1866 25.4298C91.1032 25.4576 84.1001 27.9031 75.0405 28.2922C73.4008 28.3756 72.845 28.6535 72.2337 29.0425C71.5667 29.4872 70.733 30.0152 63.8688 29.6817C59.9503 29.4872 57.1157 29.1815 55.0315 28.9592C51.113 28.5423 49.3067 28.3478 46.8611 29.5984C43.3318 31.4047 36.2175 36.0735 35.4671 37.0739C34.9947 37.6853 31.2708 40.5755 29.3533 40.77C29.1032 40.7978 28.9086 40.77 28.7975 40.6866C28.2139 40.1864 27.9638 39.7696 27.9638 39.4361C27.9916 39.1026 28.325 38.4912 29.7424 37.5741C32.3824 35.8789 38.0516 29.8485 38.3017 29.5984C38.3295 29.5706 38.3295 29.5706 38.3295 29.5428C40.4138 28.9592 42.3313 28.0143 44.2211 27.0972C46.4999 25.9856 48.6675 24.9296 50.8352 24.6517C51.5855 24.5405 52.308 24.4016 53.0028 24.1793C59.8948 27.264 68.871 27.3473 69.7881 27.3473C69.8437 27.3473 69.8715 27.3473 69.8715 27.3473C70.0938 27.3473 70.2605 27.1528 70.2605 26.9583C70.2605 26.736 70.0938 26.5414 69.8715 26.5692C69.7881 26.5692 61.0897 26.6248 54.1422 23.818C55.3927 23.3733 56.4766 22.8175 57.3103 22.3173C57.616 22.1506 60.256 20.5943 60.3116 19.8995C60.3394 19.5661 60.0893 19.2882 59.7836 19.2604C59.5335 19.2326 59.339 19.3715 59.2278 19.5661C58.7276 20.1219 54.8925 22.9287 50.6962 23.4845C48.334 23.7902 46.083 24.874 43.7208 26.0412C41.1919 27.264 38.5796 28.5423 35.7173 28.8758C32.4658 29.2371 29.4644 28.848 27.5469 28.4589C28.1027 28.32 28.5752 28.2088 28.8531 28.1255C33.2995 26.9583 33.5218 26.2635 33.6052 26.0134C34.1332 24.2626 33.8553 22.9009 32.6881 21.567C32.0767 20.8722 30.2704 20.8722 28.2973 21.0945C29.659 20.6221 31.2986 20.2052 33.105 20.0107C36.8011 19.6494 39.191 18.7046 41.6922 17.7041C42.8871 17.2317 44.1099 16.7315 45.555 16.2868C50.2794 14.7584 57.3103 9.92285 57.6438 9.53379C57.8383 9.28368 57.8105 8.89461 57.5604 8.70008C57.3103 8.50555 56.949 8.53334 56.7545 8.75566C56.421 9.06136 52.308 11.8959 48.4174 13.8135C48.0005 12.424 46.9445 9.20031 45.3327 7.78301C45.1659 7.64405 44.9158 7.64405 44.7769 7.81079C44.6379 7.97753 44.6379 8.22764 44.8047 8.36659C46.3053 9.67274 47.3336 12.9242 47.6948 14.1748C46.8333 14.5916 45.9719 14.9251 45.2215 15.1752C43.7208 15.6476 42.4981 16.1479 41.2753 16.6203C40.1081 17.0927 39.0243 17.5096 37.8571 17.8709C38.0794 17.8153 38.1906 17.6207 38.135 17.3984C37.7737 15.9255 37.1901 14.5082 36.3564 13.2299C36.2453 13.0354 35.9952 13.0076 35.8006 13.1187C35.6061 13.2299 35.5783 13.48 35.6895 13.6745C36.4676 14.8695 37.0234 16.2034 37.3569 17.593C37.4125 17.7597 37.5514 17.8986 37.7459 17.8986C37.7737 17.8986 37.8015 17.8986 37.8293 17.8986C36.4398 18.3433 34.9113 18.6768 32.966 18.8713C27.797 19.3993 24.0731 21.7337 23.6285 22.0116C22.3779 22.3173 21.5164 22.5674 21.4886 22.5674C20.2103 23.0676 19.2376 23.5401 18.5429 24.0125C18.3484 23.7068 18.126 23.4289 17.8759 23.151C17.737 22.9843 17.4868 22.9565 17.3201 23.1232C17.1534 23.2622 17.1256 23.5123 17.2923 23.679C17.5146 23.9291 17.737 24.207 17.9037 24.4849C17.3201 24.9852 17.07 25.4854 17.0978 26.0134C17.1256 26.5414 17.4591 26.9583 17.9871 27.3195C10.9006 30.4876 9.76116 29.1537 9.03862 28.2922C8.98304 28.2088 8.92746 28.1532 8.87188 28.0977C8.67735 27.8753 8.67735 27.7364 8.67735 27.6252C8.76072 26.9305 10.2336 25.9578 11.4008 25.1797C11.6509 25.013 11.9288 24.8462 12.1789 24.6517C14.0131 23.4011 23.3506 17.8153 26.7966 15.7866C28.6863 14.6472 35.8562 12.0905 35.9396 12.0627C36.1341 11.9793 36.3009 11.8126 36.3286 11.6181C36.3564 11.3957 36.2731 11.2012 36.1063 11.0623C36.0507 11.0067 34.8002 10.034 33.9387 9.4782C33.3551 9.11693 31.91 8.97799 29.4089 8.75566C27.9916 8.6445 26.4075 8.50555 25.0736 8.28323C24.8791 8.25544 24.7123 8.22764 24.5178 8.22764C24.8513 6.69918 24.4066 4.83724 23.7674 3.69784C23.6563 3.5033 23.4062 3.44772 23.2394 3.55889C23.0449 3.67005 22.9893 3.92015 23.1005 4.08689C23.7119 5.14292 24.0731 6.9215 23.7397 8.22764C22.5169 8.31101 21.3219 8.75566 19.9046 9.25589C18.9319 9.58937 17.8481 9.97843 16.5976 10.3119C16.3475 9.33925 16.3197 8.31102 16.4864 7.31057C16.5142 7.08825 16.3752 6.8937 16.1529 6.86591C15.9306 6.83812 15.7361 6.97708 15.7083 7.1994C15.5137 8.31101 15.5693 9.42263 15.8472 10.5064C14.819 10.7566 13.6796 10.9511 12.4012 11.0345C8.67734 11.3401 6.70424 10.3119 5.70379 9.36704C5.00903 8.72786 4.75891 8.11649 4.75891 7.92196C5.06461 7.42173 7.48236 6.22675 10.9284 6.00442C13.3739 5.86547 16.9866 4.25364 19.8768 2.9475C21.5164 2.22495 22.9059 1.58577 23.6563 1.41903C24.7123 1.19671 27.7415 1.28009 30.9651 1.39125C34.0221 1.50241 37.4958 1.61357 40.2749 1.47462C41.6366 1.41904 42.7204 1.30788 43.5819 1.2523C46.4443 1.00219 47.3058 0.946606 50.4739 2.36391C55.0037 4.42039 71.9001 8.03311 80.0983 9.2003C88.5743 10.3953 95.6052 7.86637 95.8831 7.75521C96.1333 7.72742 96.3 7.39393 96.1888 7.06045ZM20.0158 38.3801C18.5151 38.2411 18.0705 37.6297 17.9871 37.5464C17.9037 37.2407 18.0982 36.7682 18.654 36.0457C19.0431 35.5454 23.434 31.8216 26.2686 29.4872C27.408 29.7651 29.3811 30.1541 31.7433 30.2653C30.6316 31.238 29.3533 32.3218 28.0749 33.35C27.8526 32.961 27.5747 32.5719 27.269 32.2662C27.1023 32.1273 26.8522 32.1273 26.7132 32.2662C26.5465 32.4329 26.5743 32.6831 26.7132 32.822C27.0189 33.1277 27.269 33.4612 27.4635 33.8503C24.3232 36.3236 21.183 38.4634 20.0158 38.3801ZM40.7751 24.0125C40.9696 22.5396 40.525 20.9834 39.5801 19.844C39.4412 19.6772 39.4689 19.4271 39.6357 19.2882C39.8024 19.1492 40.0525 19.177 40.1915 19.3437C41.2753 20.6499 41.7755 22.4285 41.5532 24.0959C41.5254 24.2904 41.3587 24.4294 41.1641 24.4294C41.1363 24.4294 41.1364 24.4294 41.1086 24.4294C40.8862 24.4294 40.7473 24.2348 40.7751 24.0125ZM37.2457 20.2052C38.1072 21.4002 38.7186 22.8175 38.9965 24.2626C39.0243 24.4849 38.8853 24.6795 38.6908 24.7351C38.663 24.7351 38.6352 24.7351 38.6074 24.7351C38.4129 24.7351 38.2462 24.5961 38.2184 24.4016C37.9683 23.0676 37.4125 21.7615 36.6065 20.6777C36.4676 20.5109 36.5232 20.2608 36.6899 20.1219C36.8567 19.9829 37.1068 20.0107 37.2457 20.2052ZM77.486 21.8726C77.2637 22.8175 77.4304 23.818 77.9862 24.874C78.0974 25.0685 78.014 25.3186 77.8195 25.402C77.7639 25.4298 77.7083 25.4576 77.6527 25.4576C77.5138 25.4576 77.3748 25.3742 77.2915 25.2353C76.6801 24.0125 76.4855 22.8175 76.7357 21.7059C76.8746 21.0389 77.1247 20.4276 77.3471 19.8162C77.5138 19.3715 77.6805 18.8991 77.8195 18.4267C78.0696 17.5652 78.2363 16.3424 77.6805 15.3975C77.5694 15.203 77.6249 14.9807 77.8195 14.8695C78.014 14.7584 78.2363 14.8139 78.3475 15.0085C78.9033 15.9533 78.9589 17.2039 78.5698 18.649C78.4309 19.1492 78.2641 19.6216 78.0696 20.0941C77.8195 20.7055 77.625 21.2613 77.486 21.8726Z" fill="#C5AB90"/>
<path d="M55.3927 96.0449C55.1982 97.5177 55.6428 99.074 56.5877 100.213C56.7267 100.38 56.6989 100.63 56.5321 100.769C56.4488 100.825 56.3654 100.853 56.282 100.853C56.1709 100.853 56.0597 100.797 55.9763 100.714C54.8925 99.4075 54.3923 97.6289 54.6146 95.9615C54.6424 95.7392 54.8369 95.6002 55.0592 95.628C55.2816 95.628 55.4205 95.8225 55.3927 96.0449ZM59.2556 100.019C59.3389 100.019 59.4223 99.9911 59.4779 99.9355C59.6446 99.7965 59.7002 99.5742 59.5613 99.3797C58.7553 98.2681 58.1995 96.9897 57.9494 95.6558C57.9216 95.4335 57.6993 95.2945 57.477 95.3501C57.2547 95.3779 57.1157 95.6002 57.1713 95.8225C57.4492 97.2676 58.0328 98.6849 58.9221 99.8799C59.0055 99.9633 59.1166 100.019 59.2556 100.019ZM18.0982 99.9633C17.9315 100.436 17.7369 100.908 17.598 101.408C17.1811 102.853 17.2645 104.104 17.8203 105.049C17.9037 105.188 18.0148 105.243 18.1538 105.243C18.2094 105.243 18.2927 105.216 18.3483 105.188C18.5429 105.077 18.5984 104.827 18.4873 104.66C17.9315 103.715 18.0982 102.492 18.3483 101.631C18.4873 101.158 18.654 100.686 18.8208 100.241C19.0431 99.6298 19.2654 99.0184 19.4322 98.3515C19.6823 97.2399 19.4877 96.0449 18.8764 94.8221C18.7652 94.6275 18.5429 94.5442 18.3483 94.6553C18.1538 94.7665 18.0704 94.9888 18.1816 95.1834C18.7096 96.2394 18.8763 97.2398 18.6818 98.1847C18.5429 98.7961 18.3205 99.3797 18.0982 99.9633ZM94.8549 112.886C92.9929 113.886 90.4084 114.664 90.4084 114.47V114.442C89.7415 114.609 89.0467 114.72 88.3797 114.72C88.2964 114.72 88.213 114.72 88.1296 114.72C87.2125 114.914 86.2677 115.053 85.3506 115.137C83.0996 115.276 79.6258 116.832 76.7912 118.083C75.0404 118.861 73.6509 119.5 72.7894 119.667C71.5944 119.944 68.6209 119.833 65.2027 119.722C62.1735 119.611 58.6998 119.5 56.0041 119.639C54.6702 119.694 53.5864 119.806 52.7527 119.861C51.8078 119.944 51.0852 120 50.3905 120C48.8898 120 47.6392 119.694 45.3049 118.638C41.2197 116.776 24.8235 113.164 16.0139 111.913C7.84361 110.746 0.868262 113.275 0.784891 113.303C0.479198 113.414 0.145712 113.247 0.0345512 112.941C-0.0766098 112.636 0.0901452 112.302 0.395838 112.191C0.701531 112.08 7.73246 109.523 16.1807 110.746C24.3788 111.913 41.2475 115.498 45.8051 117.582C48.9732 119.027 49.8347 118.944 52.6693 118.694C53.5308 118.611 54.6146 118.527 55.9763 118.472C58.7554 118.333 62.2013 118.444 65.2861 118.555C68.4819 118.666 71.5388 118.749 72.5949 118.527C73.3452 118.36 74.7347 117.721 76.3744 116.999C79.2646 115.693 82.8773 114.109 85.3228 113.942C88.7688 113.719 91.1865 112.497 91.4922 112.024C91.4645 111.83 91.2144 111.218 90.5474 110.579C89.547 109.662 87.5738 108.606 83.8499 108.912C82.5716 109.023 81.4322 109.217 80.404 109.44C80.6819 110.524 80.7097 111.663 80.5429 112.747C80.5151 112.941 80.3484 113.08 80.1538 113.08C80.1261 113.08 80.0982 113.08 80.0982 113.08C79.8759 113.053 79.737 112.83 79.7648 112.636C79.9315 111.635 79.9037 110.607 79.6536 109.634C78.403 109.968 77.3192 110.357 76.3466 110.69C74.9293 111.191 73.7065 111.635 72.5115 111.719C72.1503 113.025 72.5115 114.803 73.1507 115.859C73.2618 116.054 73.2063 116.276 73.0117 116.387C72.9561 116.415 72.8728 116.443 72.8172 116.443C72.6783 116.443 72.5393 116.36 72.4837 116.248C71.8168 115.109 71.3999 113.247 71.7334 111.719C71.5388 111.719 71.3721 111.691 71.1776 111.663C69.8437 111.441 68.2596 111.302 66.8423 111.191C64.3412 110.968 62.8961 110.829 62.3125 110.468C61.451 109.94 60.2004 108.94 60.1449 108.884C59.9781 108.745 59.8947 108.55 59.9225 108.328C59.9503 108.106 60.1171 107.939 60.3116 107.883C60.395 107.856 67.5371 105.271 69.4546 104.16C72.9006 102.131 82.2381 96.5451 84.0723 95.2945C84.3224 95.1278 84.5725 94.961 84.8504 94.7665C86.0176 93.9884 87.4627 93.0435 87.5738 92.321C87.5738 92.2098 87.5738 92.0709 87.3793 91.8485C87.3237 91.793 87.2682 91.7096 87.2126 91.654C86.49 90.8203 85.3506 89.4586 78.2641 92.6266C78.7921 92.9879 79.0978 93.4048 79.1534 93.9328C79.1812 94.4608 78.9311 94.961 78.3475 95.4613C78.542 95.7392 78.7365 96.0171 78.9588 96.2672C79.0978 96.4339 79.0978 96.684 78.9311 96.823C78.8477 96.8786 78.7643 96.9063 78.6809 96.9063C78.5698 96.9063 78.4586 96.8508 78.3753 96.7674C78.1251 96.4895 77.9306 96.2116 77.7083 95.9059C77.0135 96.3783 76.0409 96.8508 74.7625 97.351C74.7347 97.351 73.8733 97.6011 72.6227 97.9068C72.178 98.1847 68.4541 100.519 63.2852 101.047C61.3676 101.242 59.8392 101.575 58.4219 102.02C58.6442 101.964 58.8387 102.103 58.8943 102.298C59.2278 103.687 59.7836 105.021 60.5617 106.216C60.6729 106.411 60.6173 106.633 60.4506 106.772C60.395 106.827 60.3116 106.827 60.2282 106.827C60.0893 106.827 59.9781 106.772 59.8947 106.661C59.061 105.382 58.4774 103.993 58.1162 102.492C58.0606 102.27 58.1995 102.075 58.3941 102.02C57.2269 102.381 56.1431 102.826 54.9759 103.27C53.7809 103.743 52.5303 104.243 51.0297 104.715C50.2515 104.966 49.4178 105.327 48.5563 105.716C48.9176 106.966 49.9458 110.19 51.4465 111.524C51.6132 111.663 51.6133 111.913 51.4743 112.08C51.3909 112.163 51.2798 112.219 51.1686 112.219C51.0852 112.219 50.9741 112.191 50.9185 112.108C49.3067 110.69 48.2228 107.467 47.8338 106.077C43.9431 107.995 39.8302 110.829 39.4967 111.135C39.3855 111.274 39.2188 111.329 39.0521 111.329C38.9131 111.329 38.802 111.274 38.6908 111.191C38.4407 110.996 38.3851 110.607 38.6074 110.357C38.9409 109.94 45.9718 105.132 50.6962 103.604C52.1413 103.131 53.364 102.659 54.559 102.186C57.0601 101.186 59.4501 100.241 63.1462 99.8799C64.9526 99.6854 66.5922 99.2685 67.9261 98.7961C67.2036 98.8795 66.5088 98.9351 65.8697 98.9351C64.7858 98.9351 63.8965 98.7683 63.5075 98.3236C62.3403 96.9897 62.0346 95.628 62.5904 93.8772C62.6738 93.6271 62.8683 92.9323 67.3425 91.7652C67.6204 91.6818 68.0929 91.5706 68.6487 91.4317C66.7589 91.0426 63.7298 90.6536 60.4783 91.0148C57.6437 91.3205 55.0314 92.5989 52.4747 93.8494C50.0848 95.0166 47.8338 96.1005 45.4994 96.4061C41.2753 96.962 37.468 99.7688 36.9678 100.325C36.8566 100.491 36.6621 100.63 36.4676 100.63C36.4398 100.63 36.4398 100.63 36.412 100.63C36.0785 100.602 35.8562 100.325 35.884 99.9911C35.9395 99.2963 38.5796 97.7401 38.8853 97.5733C39.719 97.1009 40.8306 96.5451 42.0534 96.0726C35.1058 93.2658 26.4353 93.3214 26.3241 93.3214C26.1018 93.3214 25.9351 93.1547 25.9351 92.9324C25.9351 92.71 26.1018 92.5433 26.3241 92.5433C26.4353 92.5433 35.9674 92.4599 43.1928 95.7114C43.8876 95.5169 44.6101 95.3501 45.3605 95.2389C47.5281 94.961 49.6957 93.905 51.9745 92.7934C53.8643 91.8763 55.8096 90.9315 57.8661 90.3479C57.8661 90.3201 57.8938 90.3201 57.8938 90.2923C58.144 90.0422 63.8132 84.0117 66.4532 82.3165C67.8983 81.3994 68.2318 80.788 68.2318 80.4545C68.2596 80.1211 67.9817 79.7042 67.3981 79.204C67.3147 79.1206 67.1202 79.0928 66.8423 79.1206C64.9526 79.3151 61.2009 82.2053 60.7285 82.8167C59.9781 83.7894 52.8638 88.4859 49.3345 90.2923C46.8889 91.5429 45.1103 91.3483 41.1641 90.9314C39.0798 90.7091 36.2452 90.4034 32.3268 90.2089C25.4626 89.8754 24.6289 90.4035 23.962 90.8481C23.3506 91.2372 22.7948 91.515 21.1551 91.5984C12.1233 91.9875 5.09238 94.433 5.00901 94.4608C4.95343 94.4886 4.87006 94.4886 4.81448 94.4886C4.56436 94.4886 4.34204 94.3497 4.25867 94.0995C4.14751 93.7938 4.31425 93.4604 4.61994 93.3492C4.70331 93.3214 11.8732 90.8203 21.0996 90.4312C22.5725 90.3757 22.9059 90.1533 23.3228 89.8754C24.2121 89.2918 25.1569 88.7082 32.3824 89.0417C36.3286 89.2363 39.191 89.5419 41.2753 89.7643C45.1937 90.1811 46.6388 90.3479 48.7786 89.2362C52.4192 87.3465 59.2556 82.8167 59.7836 82.0942C60.3394 81.3438 64.3968 78.1757 66.7034 77.9256C67.0924 77.8701 67.4259 77.9256 67.7316 78.0368C68.2596 77.7311 69.3712 77.3142 70.594 78.0646C70.9275 78.2869 71.122 78.5926 71.1498 78.9816C71.1498 79.9265 69.8437 80.8992 69.1489 81.3716C68.8154 82.0108 68.1485 82.6222 67.0924 83.3169C65.2583 84.4841 61.7289 88.0413 59.8947 89.9032C60.0337 89.8754 60.1726 89.8754 60.3394 89.8476C61.1453 89.7642 61.9512 89.7087 62.7294 89.7087C64.8414 87.7911 73.512 80.1766 76.3466 80.4268C76.7634 80.4545 77.1247 80.5379 77.4304 80.6213C77.7361 80.4267 78.3197 80.1489 79.3757 80.0099C80.3484 79.8709 81.6823 79.7876 82.0714 80.6768C82.4326 81.4828 81.7379 82.5388 79.7648 84.1784C79.4869 84.4008 79.209 84.6509 78.9311 84.8732C76.8746 86.5962 76.2354 87.0686 75.8186 87.1242C74.2623 88.4581 72.4281 90.0144 71.2887 90.9314C71.2887 90.9314 71.2887 90.9314 71.2887 90.9592C72.0391 90.8759 72.706 90.8481 73.1507 90.9592L73.4286 91.0148C74.7069 91.2927 75.8741 91.5984 76.819 91.9319C83.0718 89.0139 85.6007 89.0417 87.0458 89.931C88.4909 89.3474 90.8253 89.403 92.0203 90.6535C92.8818 91.5428 87.9351 94.6553 87.9351 94.6553C87.9629 94.6276 87.9629 94.5998 87.9629 94.572C86.8791 95.3223 85.4896 96.1282 83.9333 96.684C80.4873 98.8795 70.0938 105.049 69.9826 105.104C68.4264 106.022 63.7298 107.8 61.6455 108.55C62.0346 108.828 62.4792 109.162 62.8405 109.384C63.2296 109.606 65.2305 109.801 66.8423 109.94C68.2874 110.051 69.8992 110.218 71.261 110.412C72.6783 110.635 74.0956 110.135 75.9019 109.495C77.875 108.801 80.3206 107.911 83.7388 107.633C88.2964 107.272 90.5752 108.828 91.5201 109.773C91.6868 109.94 91.8258 110.107 91.9369 110.273H91.9647C91.9091 110.162 91.8535 110.079 91.7424 110.023C92.9373 110.107 94.1879 110.718 95.0772 111.274C95.9943 112.024 95.6052 112.497 94.8549 112.886ZM68.6765 86.2349C68.871 86.624 69.1211 86.9575 69.4268 87.2631C69.5936 87.4299 69.5936 87.6522 69.4268 87.819C69.3434 87.9023 69.2601 87.9301 69.1489 87.9301C69.0378 87.9301 68.9544 87.9023 68.871 87.819C68.5375 87.5133 68.2874 87.1242 68.0651 86.7351C66.7867 87.7634 65.5084 88.8472 64.3968 89.8198C66.7589 89.931 68.732 90.3201 69.8715 90.598C72.7061 88.2358 77.0969 84.5397 77.486 84.0395C78.0418 83.3169 78.2641 82.8445 78.1529 82.5388C78.0973 82.4554 77.6527 81.8163 76.1243 81.7051C74.9849 81.5939 71.8445 83.7338 68.6765 86.2349Z" fill="#C5AB90"/>
<path d="M41.0252 78.9816C49.3344 81.5939 58.0884 78.4536 62.9517 71.8118C64.23 70.0888 65.2305 68.1434 65.8974 65.9758C69.1767 55.4989 63.3685 44.3828 52.8916 41.0757C42.4425 37.7965 31.2986 43.6046 27.9915 54.0816C27.3246 56.2214 27.0189 58.4169 27.0745 60.5567C27.3246 68.8104 32.7159 76.3693 41.0252 78.9816ZM62.507 52.9144C64.0077 54.7485 64.5913 57.8332 64.5357 61.2236C64.5079 62.5298 63.5075 65.281 62.4515 67.004C61.8401 68.0045 61.2009 68.7826 60.4228 69.4774C60.784 66.3371 59.7558 63.169 57.6993 60.5011C57.9772 60.5289 58.2551 60.6123 58.533 60.7234C62.5904 61.446 62.118 55.3877 62.507 52.9144ZM30.0758 52.7198C32.5214 47.7732 37.607 44.1327 42.8037 42.5208C39.6634 43.1322 36.9678 44.1049 36.3842 44.7162C39.5245 41.5204 46.5276 39.8808 51.6966 41.8261C56.2264 43.1322 65.0081 51.4137 54.4201 54.7208C58.2273 53.5258 56.7267 47.6342 53.6142 45.939C52.0301 45.0775 51.3353 45.1887 50.2515 46.1891C49.2789 47.1062 49.0843 48.5513 49.5846 49.7741C49.6679 49.9686 49.7235 50.1353 49.7791 50.3299C49.8069 50.4133 49.8347 50.4966 49.8347 50.58C49.9458 51.2192 49.8625 51.8306 49.5012 52.4141C49.5012 52.4141 49.5012 52.4141 49.5012 52.4419C49.3344 52.692 49.1399 52.9144 48.862 53.1367C48.334 53.6091 47.6115 53.9148 46.8333 54.1371C41.97 53.3034 37.2735 54.5262 34.1332 57.2497C35.3004 55.8601 36.8844 54.8319 38.6074 54.026C40.914 52.8032 45.9996 53.1367 45.9718 50.8301C45.8885 44.6329 27.5469 49.8852 29.7979 63.3635C29.9646 64.0305 30.1592 64.6697 30.3537 65.281C30.3259 67.7544 31.1041 70.1999 32.5769 72.3953C28.0471 67.1152 26.3519 59.6118 30.0758 52.7198ZM33.5774 50.6356C37.4402 45.7167 40.5249 45.1887 44.4434 45.7167C47.9727 46.6338 49.4734 50.1354 47.3335 52.3586C45.944 53.6091 45.4994 53.1923 46.6666 51.5249C48.8342 48.4124 43.4151 46.8283 40.386 47.3563C37.8293 47.9121 35.078 48.7458 33.5774 50.6356ZM43.5819 44.4106C44.3878 43.5491 45.944 42.7153 47.3335 42.5764C47.8894 42.5208 48.7786 42.5486 50.4461 43.3267C49.3067 43.4379 47.6115 46.467 47.3613 45.3554C46.8889 43.16 43.1372 44.9108 43.5819 44.4106Z" fill="#C5AB90"/>
</svg>
