<svg width="71" height="120" viewBox="0 0 71 120" fill="none" xmlns="http://www.w3.org/2000/svg">
<path d="M35.4861 62.2799C34.93 62.2799 34.4852 61.835 34.4852 61.279C34.4852 60.7229 34.93 60.278 35.4861 60.278C36.0422 60.278 36.487 60.7229 36.487 61.279C36.487 61.835 36.0422 62.2799 35.4861 62.2799ZM70.5185 26.6636L56.7002 32.4189C58.1182 33.7813 58.9245 34.7266 58.9523 34.7544C58.9523 34.7544 58.9523 34.7544 58.9523 34.7822C58.9523 34.81 58.9801 34.81 58.9801 34.8378L59.0079 34.8656C59.0079 34.8656 59.0079 34.8934 59.0357 34.8934C59.0357 34.9212 59.0635 34.9212 59.0635 34.949C59.0635 34.949 59.0635 34.9768 59.0913 34.9768V35.0046C59.0913 35.0324 59.1191 35.088 59.1191 35.1158C59.1191 35.1437 59.1191 35.1437 59.1191 35.1715C59.1191 35.1993 59.1191 35.2271 59.1191 35.2549C59.1191 35.2827 59.1191 35.3105 59.1191 35.3105C59.1191 35.3383 59.1191 35.3661 59.1191 35.3661C59.1191 35.3939 59.1191 35.4217 59.0913 35.4495V35.4773C59.0913 35.5051 59.0913 35.5051 59.0635 35.5329L59.0357 35.5607C59.0357 35.5607 59.0357 35.5885 59.0079 35.5885C58.9801 35.6163 58.9801 35.6441 58.9523 35.6719C58.9523 35.6719 58.9523 35.6997 58.9245 35.6997C58.8967 35.7553 58.7576 35.8943 58.5908 36.089L61.399 38.5913C61.6492 38.8137 61.677 39.1752 61.4546 39.4254C61.3434 39.5644 61.1765 39.62 61.0097 39.62C60.8707 39.62 60.7317 39.5644 60.6205 39.481L57.8123 36.9787C57.1172 37.7016 56.1441 38.6469 54.9208 39.7034L57.0894 42.595C57.2841 42.8452 57.2284 43.2345 56.9782 43.4291C56.867 43.5125 56.7558 43.5403 56.6168 43.5403C56.45 43.5403 56.2553 43.4569 56.1441 43.2901L54.031 40.4541C53.0579 41.2326 52.0014 42.0667 50.8058 42.873L52.5575 46.0982C52.7243 46.3763 52.6131 46.7377 52.335 46.9045C52.2516 46.9601 52.1404 46.988 52.057 46.988C51.8346 46.988 51.6399 46.8767 51.5287 46.6821L49.8049 43.5403C48.526 44.3466 47.1358 45.1251 45.6622 45.7924L46.7743 48.8786C46.8855 49.1844 46.7187 49.5181 46.4129 49.6293C46.3573 49.6571 46.2739 49.6571 46.2183 49.6571C45.968 49.6571 45.7456 49.5181 45.6622 49.2678L44.5778 46.2651C43.2155 46.8211 41.7697 47.2938 40.2683 47.6274L41.0746 50.7136C41.158 51.0195 40.9634 51.3531 40.6576 51.4365C40.6019 51.4365 40.5463 51.4643 40.5185 51.4643C40.2683 51.4643 40.0181 51.2975 39.9347 51.0195L39.1006 47.8499C38.1274 48.0167 37.1265 48.1001 36.0978 48.1279V50.9639C36.7929 52.1038 37.8216 53.9944 37.8216 55.1622C37.8216 56.9138 36.7929 58.304 35.5139 58.304C34.2349 58.304 33.2062 56.886 33.2062 55.1622C33.2062 53.9944 34.2349 52.1038 34.93 50.9639V48.1279C33.9847 48.1001 33.0672 48.0167 32.1497 47.8777L31.4268 50.9639C31.3712 51.2419 31.1209 51.4087 30.8429 51.4087C30.7873 51.4087 30.7595 51.4087 30.7039 51.3809C30.3981 51.2975 30.1756 50.9917 30.259 50.658L30.9819 47.6274C29.4805 47.3216 28.0348 46.8489 26.6446 46.2929L25.6437 49.3513C25.5602 49.6015 25.3378 49.7683 25.0876 49.7683C25.032 49.7683 24.9764 49.7683 24.893 49.7405C24.5871 49.6293 24.4203 49.2956 24.5037 48.9898L25.5324 45.848C24.0589 45.1807 22.6687 44.43 21.3619 43.6237L19.6659 46.9323C19.5547 47.127 19.3601 47.266 19.1376 47.266C19.0542 47.266 18.943 47.2382 18.8596 47.2104C18.5816 47.0714 18.4425 46.7099 18.6094 46.4041L20.361 42.9842C19.1932 42.2057 18.1089 41.3994 17.1358 40.6209L14.9393 43.7349C14.8281 43.9018 14.6335 43.9852 14.4666 43.9852C14.3554 43.9852 14.2164 43.9574 14.133 43.874C13.855 43.6793 13.7994 43.3179 13.994 43.0399L16.2461 39.8703C15.0505 38.8415 14.0774 37.924 13.3823 37.2011L10.3795 40.0371C10.2683 40.1483 10.1293 40.2039 9.96247 40.2039C9.79565 40.2039 9.65663 40.1483 9.54542 40.0093C9.32299 39.759 9.32299 39.3976 9.57322 39.1752L12.576 36.3392C12.2702 36.0056 12.0755 35.7831 12.0477 35.7275V35.6997C12.0477 35.6997 12.0477 35.6997 12.0199 35.6719C11.9643 35.5885 11.9087 35.5051 11.8809 35.3939C11.8809 35.3661 11.8809 35.3661 11.8809 35.3383C11.8809 35.2827 11.8531 35.2549 11.8531 35.1993V35.1715C11.8531 35.1158 11.8531 35.0602 11.8809 35.0046V34.9768C11.8809 34.9212 11.9087 34.8934 11.9365 34.8656C11.9365 34.8656 11.9365 34.8378 11.9643 34.8378C11.9921 34.7822 12.0199 34.7544 12.0477 34.6988C12.1589 34.5598 12.9374 33.6423 14.272 32.3633L0.453664 26.6358C0.0644146 26.469 -0.102407 26.0519 0.0644142 25.6627C0.231235 25.2734 0.648288 25.1066 1.03754 25.2734L15.4676 31.279C15.8846 30.9175 16.3295 30.5283 16.8021 30.1112L2.37211 21.4921C2.01066 21.2697 1.89945 20.8248 2.12188 20.4634C2.3443 20.1019 2.78916 19.9907 3.15061 20.2132L18.0533 29.1381C18.4981 28.8044 18.943 28.4708 19.4157 28.1372L3.34523 14.8471C3.03939 14.5968 2.98379 14.1242 3.23402 13.7905C3.48425 13.4847 3.95691 13.4291 4.29055 13.6793L20.6946 27.2475C21.1673 26.9416 21.6399 26.6358 22.1404 26.3577L12.0199 14.7915C11.7419 14.4856 11.7697 14.013 12.1033 13.7349C12.4092 13.4569 12.8818 13.4847 13.1599 13.8184L23.475 25.607C23.9754 25.329 24.5037 25.0788 25.032 24.8285L14.5222 7.70158C14.2998 7.34013 14.411 6.89527 14.7725 6.67284C15.1339 6.45042 15.5788 6.56163 15.8012 6.92308L26.3943 24.2447C26.9504 24.0222 27.5065 23.7998 28.0904 23.6052L23.0301 10.6209C22.8911 10.2317 23.0579 9.81464 23.4472 9.64782C23.8364 9.50881 24.2535 9.67563 24.4203 10.0649L29.5361 23.1603C30.1478 22.9935 30.7595 22.8545 31.3712 22.7433L27.7845 3.83689C27.7011 3.41983 27.9791 3.03058 28.3684 2.97498C28.7854 2.89157 29.1747 3.1696 29.2303 3.55885L32.8448 22.5209C33.4842 22.4374 34.1237 22.3818 34.7632 22.354V0.750695C34.7632 0.333642 35.0968 0 35.5139 0C35.931 0 36.2646 0.333642 36.2646 0.750695V22.354C36.9041 22.3818 37.5714 22.4374 38.183 22.5209L41.7975 3.55885C41.8809 3.1418 42.2702 2.89157 42.6594 2.97498C43.0765 3.05839 43.3267 3.44764 43.2433 3.83689L39.6566 22.7433C40.2683 22.8545 40.88 22.9935 41.4917 23.1603L46.5797 10.0649C46.7187 9.67563 47.1636 9.481 47.5528 9.64782C47.9421 9.78684 48.1367 10.2317 47.9699 10.6209L42.8818 23.633C43.4657 23.8276 44.0218 24.0222 44.5778 24.2725L55.1988 6.92308C55.4212 6.56163 55.8661 6.45042 56.2275 6.67284C56.589 6.89527 56.7002 7.34013 56.4778 7.70158L45.968 24.8564C46.4963 25.1066 47.0246 25.3568 47.525 25.6348L57.8679 13.8184C58.146 13.5125 58.6186 13.4847 58.9245 13.7349C59.2303 14.013 59.2581 14.4856 59.0079 14.7915L48.8596 26.3855C49.3601 26.6636 49.8327 26.9694 50.3054 27.2753L66.7373 13.6793C67.0431 13.4291 67.5157 13.4569 67.7938 13.7905C68.044 14.0964 68.0162 14.569 67.6826 14.8471L51.5287 28.165C52.0014 28.4986 52.4462 28.8323 52.8911 29.1659L67.8216 20.241C68.183 20.0185 68.6279 20.1576 68.8503 20.4912C69.0728 20.8526 68.9337 21.2975 68.6001 21.5199L54.1423 30.1668C54.6149 30.5561 55.0598 30.9453 55.4768 31.3068L69.9347 25.3012C70.3239 25.1344 70.741 25.329 70.9078 25.6905C71.0746 26.0797 70.9078 26.4968 70.5185 26.6636ZM26.4222 35.2549C26.4222 40.2595 30.4815 44.3188 35.4861 44.3188C40.4907 44.3188 44.55 40.2595 44.55 35.2549C44.55 34.0593 44.3276 32.8916 43.855 31.8072C42.0199 31.5014 40.1293 31.3068 38.2665 31.2234C39.5454 32.1131 40.4073 33.5867 40.4073 35.2827C40.4073 38.0074 38.2108 40.2039 35.4861 40.2039C32.7614 40.2039 30.5649 38.0074 30.5649 35.2827C30.5649 33.5867 31.399 32.1131 32.7057 31.2234C30.8429 31.3346 28.9801 31.5292 27.1172 31.8072C26.6446 32.8916 26.4222 34.0315 26.4222 35.2549ZM57.006 35.5607C56.8948 35.5051 56.7558 35.4495 56.6446 35.4217C56.3943 35.3105 56.1441 35.2271 55.9217 35.1437C55.6158 35.0324 55.31 34.8934 55.0042 34.7822C54.7539 34.6988 54.5037 34.5876 54.2813 34.5042C53.9754 34.393 53.6696 34.2817 53.336 34.1705C53.0857 34.0871 52.8355 34.0037 52.6131 33.9203C52.3072 33.8091 51.9736 33.7257 51.6677 33.6145C51.4175 33.5311 51.1951 33.4754 50.9449 33.392C50.6112 33.3086 50.3054 33.1974 49.9717 33.114C49.7493 33.0584 49.4991 32.975 49.2766 32.9194C48.943 32.836 48.6094 32.7525 48.2757 32.6691C48.0533 32.6135 47.8309 32.5579 47.6084 32.5023C47.247 32.4189 46.8855 32.3355 46.4963 32.2521C46.3017 32.2243 46.1348 32.1687 45.9402 32.1409C45.8568 32.1131 45.7456 32.1131 45.6622 32.0853C45.968 33.0862 46.1348 34.1427 46.1348 35.2271C46.1348 41.0936 41.3526 45.8758 35.4861 45.8758C29.6196 45.8758 24.8374 41.0936 24.8374 35.2271C24.8374 34.1427 25.0042 33.0862 25.31 32.0853C25.2266 32.1131 25.1154 32.1131 25.032 32.1409C24.8374 32.1687 24.6705 32.2243 24.4759 32.2521C24.1145 32.3355 23.7252 32.4189 23.3638 32.5023C23.1413 32.5579 22.9189 32.6135 22.6965 32.6691C22.3628 32.7525 22.0292 32.836 21.6956 32.9194C21.4731 32.975 21.2229 33.0584 21.0005 33.114C20.6668 33.1974 20.361 33.2808 20.0273 33.392C19.7771 33.4754 19.5547 33.5311 19.3044 33.6145C18.9986 33.6979 18.665 33.8091 18.3591 33.9203C18.1089 34.0037 17.8587 34.0871 17.6084 34.1705C17.3026 34.2817 16.9968 34.393 16.6909 34.5042C16.4407 34.5876 16.1905 34.671 15.9402 34.7822C15.6344 34.8934 15.3285 35.0046 15.0227 35.1437C14.7725 35.2271 14.5222 35.3383 14.272 35.4495C14.1608 35.5051 14.0218 35.5607 13.9106 35.5885C16.4407 38.2576 25.1988 46.6265 35.4027 46.6265C45.69 46.5987 54.4759 38.2298 57.006 35.5607Z" fill="#C5AB90"/>
<path d="M68.0162 76.5432H57.8401C64.1515 70.5933 68.0996 62.141 68.0996 52.799C68.0996 49.3792 67.5714 46.0706 66.5982 42.9844C62.4277 56.2189 50.083 65.8111 35.4861 65.8111C20.8893 65.8111 8.5167 56.2189 4.34617 42.9844C3.37304 46.0706 2.84478 49.3792 2.84478 52.799C2.84478 62.1688 6.79288 70.5933 13.1043 76.5432H2.92819C2.62235 76.5432 2.31651 76.7379 2.2053 77.0159C2.09408 77.3217 2.14969 77.6554 2.37212 77.8778L24.5593 100.065H17.108C16.8021 100.065 16.4963 100.26 16.3851 100.538C16.2739 100.844 16.3295 101.177 16.5519 101.4L34.93 119.778C35.0969 119.945 35.2915 120 35.4861 120C35.6807 120 35.9032 119.917 36.0422 119.778L54.4203 101.4C54.6427 101.177 54.7261 100.844 54.5871 100.538C54.4759 100.232 54.1701 100.065 53.8642 100.065H46.4129L68.6001 77.8778C68.8225 77.6554 68.9059 77.3217 68.7669 77.0159C68.6279 76.7379 68.3499 76.5432 68.0162 76.5432ZM49.6381 69.7592C51.3897 69.5367 52.4463 68.4802 52.6409 66.7564H52.7243C52.9467 68.508 54.0033 69.5645 55.7271 69.7592V69.8426C53.9754 70.065 52.9189 71.1215 52.7243 72.8454H52.6409C52.4184 71.0937 51.3619 70.0372 49.6381 69.8426V69.7592ZM15.2173 69.7592C16.969 69.5367 18.0255 68.4802 18.2201 66.7564H18.3035C18.526 68.508 19.5825 69.5645 21.3063 69.7592V69.8426C19.5547 70.065 18.4982 71.1215 18.3035 72.8454H18.2201C17.9977 71.0937 16.9412 70.0372 15.2173 69.8426V69.7592ZM28.9245 75.1809V75.014C32.678 74.5692 34.9578 72.2893 35.4027 68.5358H35.5695C36.0144 72.2893 38.2943 74.5692 42.0477 75.014V75.1809C38.2943 75.6257 36.0144 77.9056 35.5695 81.6591H35.4027C34.9578 77.9056 32.678 75.6257 28.9245 75.1809ZM51.9458 101.678L35.4861 118.137L19.0264 101.678H26.1441L34.93 110.464C35.0691 110.603 35.2915 110.686 35.4861 110.686C35.7085 110.686 35.9032 110.603 36.0422 110.464L44.8281 101.678H51.9458ZM28.3684 101.678H42.576L35.4583 108.795L28.3684 101.678ZM44.1608 100.093H26.8114L4.84663 78.128H14.9393C20.5556 82.6878 27.7011 85.4404 35.5139 85.4404C43.2989 85.4404 50.4722 82.7156 56.0607 78.128H66.1256L44.1608 100.093Z" fill="#C5AB90"/>
</svg>
