<svg width="123" height="120" viewBox="0 0 123 120" fill="none" xmlns="http://www.w3.org/2000/svg">
<path d="M92.3966 91.5128C92.0567 91.5128 91.7507 91.5128 91.4108 91.5128C92.0907 91.2408 92.6346 90.7989 92.9065 90.085C93.0425 89.6431 93.4164 89.4391 93.7904 89.6091C93.8244 89.5751 93.8244 89.5411 93.8244 89.5071C94.4363 87.6034 91.0028 87.3654 89.881 86.4136C87.7734 83.5921 82.5382 85.5298 80.9405 87.7734C78.5949 87.4674 76.2493 87.0595 73.9717 86.5156C74.9575 86.4476 76.0453 86.2436 77.0652 85.9377C78.289 86.7875 81.0425 86.7875 82.5042 85.9717C84.2719 85.2578 86.1076 83.0482 85.7337 81.2465C85.7337 81.2125 85.6997 81.1785 85.6657 81.1445L85.6317 81.1105C84.4079 80.7365 81.8584 80.8385 80.4986 81.1445C79.0368 81.5184 77.3711 83.3881 77.0312 84.7139C76.9292 84.7479 76.8272 84.7819 76.6912 84.8159C74.6516 85.3938 72.8499 85.6997 71.864 85.9377C70.5043 85.5297 69.1445 85.0538 67.8187 84.4419C68.3966 84.4079 68.9745 84.306 69.5524 84.136C72.7819 85.8357 77.813 84.9858 78.3909 80.3286C78.6969 78.6969 78.153 79.1048 79.1728 77.711C79.2068 77.677 79.2408 77.6431 79.3088 77.6091C78.187 77.1671 76.9632 78.3569 75.6374 78.119C72 77.3711 69.1445 79.2748 69.6884 82.9462C68.4646 83.3541 67.0028 83.5241 65.813 83.4901C64.6912 82.8782 63.5694 82.1983 62.4816 81.3824C63.5354 81.2125 64.6232 81.1105 65.779 80.5326C66.8329 80.0567 67.5807 79.1388 68.0567 78.051C69.0085 78.085 70.7422 78.6289 71.7281 78.255C73.0878 77.813 73.2238 76.0113 73.8357 75.0595C74.4816 74.0057 76.1133 73.5297 76.3513 72.17C76.5212 71.6601 76.6232 71.0822 76.7252 70.5382C77.5751 76.3513 86.8555 82.7422 91.7507 79.5467C89.983 79.6487 87.2635 79.7167 85.4278 78.6969C81.8584 76.8612 76.9972 72.8499 77.2691 68.4986C77.3031 68.3626 77.3371 68.2606 77.3711 68.1586C77.4051 68.0567 77.4731 67.9887 77.5411 67.8867C79.1728 72.34 86.3796 77.6091 90.5269 78.5269C89.2351 77.1331 85.8357 75.3994 83.6261 73.4958C81.7904 72.272 79.3768 69.3484 77.847 67.9887C78.221 68.2266 78.9348 68.5666 79.9887 69.0425C84.5099 71.1161 90.6969 74.1416 91.7507 79.5467C91.9207 78.5269 91.8527 77.5751 91.5468 76.6572C91.6147 76.7592 91.7167 76.8612 91.8187 76.9632C92.1246 77.3371 92.3966 77.745 92.6006 78.119C91.8527 78.5269 92.2266 79.9207 93.2124 79.6827C93.4504 79.6487 93.6204 79.5128 93.7224 79.3428C93.7564 79.3768 93.7904 79.4108 93.8584 79.4448C94.6402 79.9547 95.3881 78.7309 94.6402 78.255C95.0482 77.7111 94.6402 76.6912 93.7904 76.8952C93.4504 76.9632 93.2465 77.2011 93.1785 77.4731C92.9065 76.9632 92.5326 76.4873 92.1246 76.0453C94.6062 76.5892 97.8697 75.9433 98.8895 74.3116C98.8895 74.2776 98.9235 74.2776 98.9235 74.2436C98.9235 74.2096 98.9235 74.2096 98.9235 74.1756C98.1756 71.3541 96.7139 69.7224 94.7422 68.9405C95.4561 68.9745 96.17 68.9405 96.6799 68.7705C96.34 69.2804 96.7479 70.1983 97.5298 69.9943C98.0397 69.8924 98.1756 69.4504 98.1076 69.0765C98.1756 69.0765 98.2096 69.0765 98.2776 69.0425C99.8414 68.7025 99.2635 66.255 97.7337 66.6289C97.0538 66.7649 96.7819 67.3088 96.8159 67.8527C96.7479 67.8527 96.6799 67.8867 96.6459 67.8867C96.068 68.0227 95.1162 67.8867 94.2663 67.7847C95.1162 67.2408 95.796 66.5269 96.2719 65.6431C96.4759 65.1331 96.5439 64.8612 96.4759 64.8272C96.34 64.6232 95.4561 64.0793 93.7904 63.2295C89.779 61.3598 84 61.0198 80.1926 63.7394C79.9887 63.8414 79.7847 63.9773 79.5807 64.1473C79.6487 63.8754 79.7167 63.6034 79.7507 63.2975C79.9207 62.2776 79.0708 61.4618 78.4929 60.7479C79.0028 60.238 79.6147 59.5241 80.1926 58.8782C80.8045 58.6062 81.5524 58.1643 82.0963 58.0623C82.6402 57.8244 83.5241 57.7904 84.2039 57.6204C84.17 57.8584 84.2379 58.1303 84.3739 58.4363C85.2238 60.306 88.1473 58.9122 87.2295 57.0765C86.6176 55.7847 85.0538 56.0566 84.4419 56.9745C83.932 56.7365 83.2521 56.7025 82.5383 56.8045C83.4901 56.0906 84.5439 55.3768 85.1898 54.6969C86.2096 56.0567 88.6912 54.7309 87.8414 52.9972C86.9915 51.1615 84.204 52.4533 84.9179 54.221C83.4561 54.6969 81.5184 55.9547 80.0567 57.4164C80.4306 56.0227 80.6346 54.221 80.3966 52.9292C81.1445 52.5892 81.6884 51.7734 81.2465 50.8215C80.3966 48.9518 77.4731 50.3456 78.3909 52.1813C78.6629 52.7592 79.1048 52.9972 79.5807 53.0651C79.5127 53.779 79.4108 54.7309 79.2748 55.7507C79.1048 56.9065 78.8669 58.1303 78.7989 58.9462C78.5269 59.3541 78.2889 59.796 78.119 60.238C77.677 58.9462 78.323 57.0765 77.0652 56.0567C76.4193 55.4788 75.4334 55.1048 74.4136 54.8669C74.3796 54.8669 74.3796 54.8329 74.3456 54.8329C70.9462 53.2011 71.0822 48.4759 68.2266 46.4703C68.2606 46.3683 68.2946 46.3003 68.3626 46.1983C68.5666 46.1983 68.7705 46.1643 68.9745 46.1303C69.0425 46.2323 69.1445 46.3343 69.2465 46.4703C73.3598 50.5156 81.3485 47.1162 84.9179 44.2606C84.8159 44.1926 84.6459 44.2266 84.3739 44.2606C82.3683 44.1586 80.2266 42.8329 78.323 42.017C76.1473 41.0651 73.6997 41.4391 71.796 42.5269C73.9037 41.0651 75.1955 38.4476 74.9235 35.796C74.6856 33.5864 74.0057 30.9688 74.8215 29.0312C71.1161 31.4788 65.2351 38.0737 68.1586 43.1048C68.1926 43.1388 68.2266 43.2068 68.2266 43.2408C67.9547 44.2946 67.8187 45.3145 67.7847 46.1983C67.6147 46.0963 67.4448 46.0283 67.2408 45.9603C66.4589 45.6204 65.5751 45.3484 65.1331 44.6346C64.5892 42.6289 61.7337 42.187 60 42.8668C59.898 42.9008 59.83 42.9688 59.7281 43.0028C58.6742 42.5269 57.2125 42.017 55.8867 41.3711C57.5524 41.5071 60.238 41.745 61.5977 40.8272C63.3315 39.9093 65.1671 36.7819 65.0992 35.2861C62.0057 34.7082 55.3428 36.7139 54.7649 40.7592C54.5269 40.6232 54.323 40.4533 54.119 40.2833C53.5751 39.8414 52.7932 40.1133 52.3513 40.5552C52.1813 40.6572 51.9773 40.7932 51.8074 40.8952C51.9094 40.6572 52.0113 40.2833 52.1133 39.7394C52.1813 39.3654 52.2833 38.9915 52.3173 38.6856C53.3031 38.8215 54.3569 38.5836 55.4108 37.8357C57.5184 36.6459 59.3201 30.4589 57.5184 28.8952C57.3824 28.7252 57.0085 28.7932 56.5326 29.0312C56.5326 28.8272 56.5326 28.6232 56.5326 28.4533C56.4306 25.8357 52.5212 25.2578 51.3314 27.3994C51.2295 27.5694 51.0935 27.8754 51.0255 28.1813C50.7195 27.9773 50.4136 27.8074 50.0737 27.7054C50.0397 27.7054 50.0397 27.7054 50.0057 27.7054C49.2578 27.7394 48.6119 29.6091 48.17 30.8669C46.9462 33.8923 48.8159 37.6657 51.6034 38.5156C51.1615 39.2635 51.1275 40.5892 51.3314 41.0992C50.0397 41.6771 48.5779 41.983 47.1161 42.289C47.66 41.7111 48 40.9972 48 40.1813C47.7281 37.5977 45.6544 36.3739 43.2748 36.034C45.3824 34.8782 46.9802 31.7847 45.7224 29.5071C43.5807 26.8895 40.4872 28.0453 38.2776 30.153C38.7535 28.8952 39.0935 27.5694 38.7196 26.2096C38.1417 24.3399 35.966 22.6742 34.0283 23.6941C31.7167 24.9179 31.2068 27.5694 31.5807 30.085C30.7309 28.6232 28.8612 27.5014 27.0935 27.2974C27.0935 26.9575 27.0935 26.6176 27.0935 26.2776C27.0935 16.9292 29.0652 8.05666 32.6006 0C11.6261 10.8782 0 32.2606 0 57.5184C0 93.5864 25.4278 120 61.4618 120C88.1813 120 112.283 107.286 122.38 84.272C113.439 88.8612 103.207 91.5128 92.3966 91.5128ZM79.2748 83.1161C80.6346 81.7224 83.728 82.1303 85.3598 81.4164C84.136 84.204 81.9263 86.2096 78.4589 85.6657C78.3229 85.6317 78.187 85.6317 78.051 85.5977C79.8527 84.9858 81.4504 84.136 82.2323 83.2181C82.0963 82.9802 80.3286 83.7281 77.915 84.4419C78.3909 83.966 78.9009 83.3541 79.2748 83.1161ZM71.4561 79.9887C73.5297 78.3229 75.3994 79.8527 77.915 78.5949C76.9972 80.4306 77.745 84.238 71.3541 83.932C71.0142 83.932 70.6742 83.898 70.4023 83.898C72.7479 83.0482 75.0255 81.4504 75.9773 80.1926C74.6176 80.1926 72.3739 82.0283 70.4703 82.6402C70.3003 82.7082 70.1303 82.7762 69.9603 82.8442C70.4363 82.0283 70.6402 80.6686 71.4561 79.9887ZM86.9915 88.5552C85.1898 88.3173 83.3541 88.0793 81.5524 87.8414C81.8584 87.6714 82.2323 87.4674 82.6742 87.2295C84.17 86.5156 86.4136 85.6657 88.1133 86.4136C88.7252 86.7535 89.2351 87.4334 89.915 87.7054C91.1048 88.2153 92.8385 88.2153 93.5864 89.2011C93.5184 89.1672 93.4164 89.1331 93.3484 89.1331C92.9065 89.0652 92.5326 89.4051 92.3286 89.745C91.6827 90.7989 90.2889 90.7649 89.0991 90.9009C86.4136 91.2748 83.2861 90.5609 81.2804 88.7932C83.3881 88.8952 85.3598 88.8272 86.9915 88.5552ZM80.6686 88.7592C80.7025 88.8272 80.7365 88.8952 80.8045 88.9972C81.2465 89.745 81.8584 90.3229 82.6062 90.7989C82.3003 90.7649 81.9603 90.6969 81.6544 90.6289C80.1586 89.0651 78.3909 88.1813 76.6912 88.8272C76.4193 88.5552 76.1473 88.3173 75.9093 88.1473C77.5411 88.4533 79.1388 88.6572 80.6686 88.7592ZM84.102 99.9773C83.3541 98.4476 80.3966 96.9178 79.2748 95.5581C77.6091 94.1303 76.7932 92.0567 76.5552 90.221C77.949 91.8527 79.7167 93.5524 79.9207 93.2805C80.3966 93.0085 78.5269 90.6289 76.8952 89.0312C79.1728 89.4051 81.1105 91.1728 82.1983 93.3824C83.3881 95.3881 84.5779 97.7677 84.102 99.9773ZM74.8215 87.9093C74.9575 88.2153 75.3314 88.7592 75.8414 89.4051C75.0595 89.2011 74.2776 88.9632 73.4958 88.7252C72.5099 87.6714 71.1841 86.9235 69.6204 86.7195C69.4504 86.5156 69.3145 86.3456 69.1445 86.1756C70.9462 86.8895 72.8838 87.4674 74.8215 87.9093ZM74.1756 96.238C74.0397 96.8838 73.8697 97.3938 73.7677 97.7677C73.7337 95.3201 70.7762 93.0425 69.7904 90.9348C69.3824 90.221 69.4504 89.2011 69.3824 88.3853C70.6062 90.153 71.2861 91.7167 71.5921 91.6487C71.762 90.4929 71.1501 88.9292 70.1983 87.5014C70.4363 87.6374 70.6742 87.7734 70.8782 87.9434C73.7337 89.4051 75.0595 93.2465 74.1756 96.238ZM59.4221 101.439C59.4221 101.439 59.3881 101.405 59.4221 101.439C59.1161 100.861 58.7422 100.351 58.4023 99.8754C58.1983 99.5014 57.9943 99.1275 57.7564 98.8215C58.0623 98.6176 58.3003 98.3796 58.5382 98.0397C59.3541 99.1275 61.7677 101.609 61.9037 101.303C62.1756 101.167 59.762 98.5156 58.7422 97.7337C58.7422 97.7337 58.7422 97.7337 58.7422 97.6997C60.3399 98.4476 62.9575 98.3116 64.4873 99.8074C64.0113 98.0396 60.7479 97.6657 58.8782 97.4278C58.8782 97.3938 58.9122 97.3938 58.9122 97.3598C59.0821 96.9519 59.1841 96.5439 59.1841 96.17C61.6997 96.9519 65.5411 97.5977 66.4929 100.589C67.5807 104.907 60.7139 104.023 59.4221 101.439ZM55.5807 108.034C53.881 106.776 54.7649 104.227 54.7989 102.493C55.1048 100.793 55.2748 99.7054 55.2748 99.1955C55.5467 99.2635 55.8187 99.2974 56.1246 99.2974C56.1246 99.8074 56.2266 100.963 56.2606 102.289C56.2946 104.091 56.1586 105.552 56.3286 105.586C56.9405 105.416 56.9065 100.521 56.4306 99.2974C56.5326 99.2974 56.6346 99.2635 56.7366 99.2635C57.1445 100.657 58.4703 104.193 58.5722 104.057C59.0142 103.955 57.8244 100.453 57.0765 99.1615C57.1445 99.1275 57.2125 99.1275 57.2465 99.0935C57.4844 99.5694 57.7564 100.079 58.0283 100.589C58.1643 100.861 58.3003 101.099 58.4363 101.371C59.1162 102.697 59.694 104.125 59.5921 105.484C59.6601 107.728 57.6544 109.87 55.5807 108.034ZM52.9292 103.547C47.898 109.87 44.0227 102.493 50.3116 99.0935C50.3796 99.0595 50.4816 98.9915 50.5496 98.9575C51.1955 98.7195 51.7734 98.4476 52.3173 98.1416C52.6232 98.0057 52.8952 97.8697 53.1331 97.7337C53.2011 97.8697 53.3031 98.0057 53.4051 98.1076C53.0651 98.5496 52.4872 99.2975 51.7734 100.113C50.6856 101.405 49.6657 102.357 49.7677 102.493C50.3116 102.765 52.9632 99.7734 53.6771 98.3796C53.813 98.5156 53.949 98.6176 54.085 98.7196C52.8272 99.6374 52.0453 102.119 51.0935 103.105C52.5212 102.901 53.4051 100.181 54.119 99.1955C54.187 99.0935 54.255 98.9915 54.3229 98.8895C54.5269 98.9915 54.7309 99.0935 54.9688 99.1615C54.3569 100.385 53.881 102.357 52.9292 103.547ZM30.2889 86.8215C30.5609 85.5298 30.8329 83.2181 31.5467 82.0283C32.1926 80.5666 33.6884 79.0368 34.2663 77.847C36.7139 79.6147 35.5241 84.068 32.9405 85.4618C32.0567 86.1077 31.0028 86.4476 30.2889 86.8215ZM29.6091 85.6997C28.2833 85.9717 26.1756 85.1898 26.0737 83.66C26.0057 83.1841 26.4136 82.4023 26.6176 81.9263C27.8414 82.1303 29.5411 82.1643 30.4249 81.8924C29.847 83.1502 29.5071 84.5099 29.6091 85.6997ZM24.6799 36.34C26.4476 35.1162 29.2351 35.898 30.8669 36.4079C31.0708 36.4759 31.2068 36.5099 31.3768 36.5439C31.3428 36.7479 31.3428 36.9858 31.3428 37.2238C30.085 36.7819 27.6714 37.1898 26.9915 38.0397C27.0595 38.1756 28.0793 37.8357 29.3711 37.6657C30.221 37.5637 30.9688 37.5637 31.3768 37.5298C31.4108 37.7337 31.4788 37.9377 31.5467 38.1416C31.4788 38.1756 31.4108 38.2096 31.3428 38.2436C30.017 38.9575 27.3994 39.2635 26.6176 40.5892C27.7734 40.0113 30.4589 39.5014 31.7167 38.4476C31.8527 38.6855 32.0227 38.8895 32.1926 39.1275C30.9348 39.7394 29.2691 41.0992 27.7394 41.4731C26.0397 42.085 22.9462 42.051 22.4363 39.8754C22.3003 38.4136 23.5921 37.0878 24.6799 36.34ZM40.9632 42.153C41.813 42.7309 42.7309 43.2408 43.7507 43.4448C43.0028 44.3286 42.7989 45.7904 42.119 46.8102C42.4929 45.2125 41.949 43.5467 40.9632 42.153ZM35.0482 43.2068C35.0482 43.1048 35.0142 43.0368 35.0142 42.9348C35.0482 42.255 35.0482 41.6091 34.9802 40.9972C34.9802 40.6912 34.9802 40.3853 34.9462 40.1133C35.1161 40.0793 35.2521 40.0453 35.3881 40.0113C35.6261 40.5213 36.102 41.3371 36.5779 42.3229C37.3258 43.8527 37.7677 45.1785 37.9037 45.1445C38.3456 44.7365 36.7139 41.0992 35.728 39.9094C35.898 39.8414 36.034 39.7734 36.204 39.6714C36.5439 41.1671 38.4816 42.9009 38.9915 44.1586C39.3654 42.7649 37.2578 40.8612 36.6459 39.8074C36.5779 39.7054 36.5099 39.6034 36.4759 39.5014C36.6799 39.3654 36.8499 39.1955 36.9858 39.0255C37.9037 40.0793 39.5014 41.3371 40.1813 42.6629C43.9207 49.8357 35.5921 50.3456 35.0482 43.2068ZM62.7875 59.7281C62.3116 61.9377 61.6317 63.9434 60.8499 65.4051C61.0198 64.5213 60.9858 63.5014 60.9858 62.7195C60.7139 58.8442 57.8244 56.2266 53.949 57.7564C52.1473 57.6544 51.2975 56.1586 49.8697 56.3286C50.5496 55.7847 51.3315 54.7309 51.7394 54.153C52.7932 52.4193 55.0028 56.1926 58.0623 55.8187C59.694 55.8867 62.2436 55.9547 62.4476 57.9603C62.3116 58.5722 62.5156 59.1501 62.7875 59.7281ZM63.0935 63.5014C63.1955 64.7932 64.3173 65.5411 64.0453 66.7649C63.9434 67.9207 62.6516 69.3145 61.9037 70.1643C61.6657 69.4504 61.1218 68.8385 60.3399 68.1247C60.238 67.9887 60.17 67.8527 60.068 67.7507C60.4079 67.4448 60.6459 67.0368 60.8499 66.7309C61.6997 65.1331 62.9235 62.5156 63.1615 60.4759C63.2295 60.5779 63.2635 60.6799 63.2975 60.7819C63.5014 61.6317 62.9915 62.5836 63.0935 63.5014ZM48.136 62.1077C48.17 60.8159 48.7139 59.4901 48.6119 58.1643C49.9377 56.9745 50.6516 57.4844 51.6034 58.0963C51.2974 58.3003 50.9915 58.6062 50.7196 58.8782C49.2238 60.3739 49.1218 63.1955 50.3456 64.9292C50.1076 65.847 50.9575 66.289 51.8414 66.4249C52.3513 67.1048 52.9292 67.8867 53.745 68.1926C55.1048 68.3966 56.1246 67.4448 56.8725 66.5269C57.4844 67.1728 58.4363 66.8669 58.9122 66.255C60.034 65.3711 60.17 63.8074 60.17 62.4476C60.4419 63.8414 60.3739 65.3711 60.068 66.5949C59.4901 67.3088 58.8442 67.7507 58.1643 67.7847C57.9603 67.8187 57.7564 69.1785 56.7705 69.4504C55.8187 69.7224 54.8668 68.8725 53.915 68.7025C52.6572 68.5326 52.3853 70.7422 51.1615 69.7564C50.6176 69.3824 50.2436 68.4306 50.0057 67.6827C50.0397 66.017 48.204 63.9433 48.136 62.1077ZM56.0907 62.9575C56.3286 63.0255 56.6006 62.9575 56.8725 62.7535C57.0085 62.6176 57.1105 62.4816 57.1445 62.3456C57.2465 62.4136 57.3144 62.4816 57.3824 62.5496C57.5864 62.8215 57.5864 63.1955 57.4504 63.5354C57.1785 63.1275 56.6346 62.9235 56.1586 63.2975C56.1586 63.1615 56.1246 63.0595 56.0907 62.9575ZM56.0907 64.6232C55.9547 64.6912 55.8527 64.7252 55.7167 64.7592C55.6487 64.5212 55.5128 64.3173 55.3088 64.2153C55.4788 64.1813 55.6147 64.1133 55.7847 63.9773C55.8187 64.2153 55.9207 64.4532 56.0907 64.6232ZM55.6487 61.3938C55.3428 61.6657 55.3088 62.0057 55.3768 62.2776C55.2748 62.2436 55.1388 62.2436 55.0368 62.2436C55.3088 61.8697 55.2068 61.3938 54.9348 61.1218C55.0028 61.0878 55.0708 61.0198 55.1388 60.9518C55.3088 60.7139 55.6147 60.4419 55.8867 60.4419C56.3626 60.4079 56.3966 60.7819 56.4306 61.1898C56.1926 61.1218 55.8867 61.1558 55.6487 61.3938ZM55.4448 65.6431C55.5807 65.5411 55.6487 65.4391 55.6827 65.3031C55.8527 65.2691 56.0227 65.2691 56.1586 65.2351C58.0623 65.1671 59.5241 62.4476 57.5524 61.2578C57.5864 59.3201 55.5467 58.5382 54.3229 60.068C53.881 60.136 53.1671 60 52.5552 60.238C50.0057 61.1898 51.1955 64.1813 52.7252 64.1133C53.0312 64.3853 53.5411 64.4872 53.949 64.1133C54.153 63.9433 54.221 63.7734 54.255 63.5694C54.3569 63.7394 54.4929 63.9093 54.6629 64.0113C54.4929 64.0453 54.3569 64.1133 54.221 64.2493C53.813 64.5892 53.847 65.0652 54.085 65.4391C53.915 65.4731 53.6091 65.6431 53.1331 65.711C52.6572 65.745 51.7734 65.5751 51.3654 65.2011C51.4334 65.0991 51.3994 64.8272 51.3654 64.6912C50.6516 63.5694 50.5156 62.2776 50.6855 60.9518C50.7535 60 51.5014 59.1161 52.0453 58.4023C52.3513 58.5722 52.6912 58.7422 53.0992 58.8442C54.4589 59.1501 55.6487 58.1643 56.9065 58.4363C58.2323 58.8102 59.1501 59.7621 59.6601 60.9858C59.4901 61.5298 59.3201 62.5836 59.2181 63.0935C59.0822 63.6034 58.9802 64.2153 58.7762 64.7592C58.4703 65.0992 58.0963 65.5751 57.6544 65.745C57.0085 64.9632 55.8187 65.6091 55.5127 66.3229C55.1388 66.9008 54.4589 67.2068 53.813 67.2748C53.4051 67.1388 53.0652 66.7989 52.6912 66.4589C52.8952 66.4249 53.0991 66.3909 53.2351 66.3569C53.677 66.187 54.085 65.881 54.153 65.5751C54.4929 65.915 55.0368 66.051 55.4448 65.6431ZM54.3569 62.6516C54.255 62.7875 54.187 62.9235 54.187 63.0595C53.949 62.5496 53.2691 62.2096 52.7252 62.7195C52.5212 62.8895 52.4193 63.0935 52.4193 63.2975C51.7734 62.7535 51.7394 61.7337 52.9292 61.2578C53.0992 61.1898 53.3031 61.1898 53.4731 61.1898C53.0312 61.8357 53.6771 62.7195 54.3569 62.6516ZM52.7592 52.8612C51.8754 52.6232 51.2975 53.3711 50.8895 54.085C49.6657 53.6431 47.932 54.187 46.4703 54.3569C45.8244 54.6289 45.2125 55.0368 44.7025 55.5807C44.6346 55.2408 44.5326 54.7989 44.3966 54.221C44.1926 52.9632 44.6006 51.0595 46.1303 50.9575C46.9462 50.9235 47.83 51.2295 48.6459 50.9915C50.5836 50.5496 51.5354 48.5099 53.1331 47.6261C54.3229 46.9802 55.3428 47.966 56.5326 48.238C59.5921 48.6459 60.6119 44.7025 63.0935 48.7139C62.9235 48.7479 62.7875 48.7819 62.6176 48.8159C60.034 49.4278 56.7026 52.0453 56.1586 54.4589C55.0028 53.983 54.017 53.1331 52.7592 52.8612ZM46.9462 54.9009C48.3059 54.5609 49.5977 54.255 50.7875 54.221C50.7196 54.3229 50.6856 54.3909 50.6516 54.4929C50.3796 55.0368 49.6317 55.9547 49.3258 56.4306C48.9518 56.5666 48.5099 56.8385 48.034 57.2465C47.3541 57.5864 47.5581 58.4023 47.5241 59.0142C47.5921 60.102 47.0482 61.1218 47.2181 62.2096C47.4901 63.9773 48.8159 65.677 49.5298 67.2408C49.3598 68.1586 49.8357 69.6884 50.5836 70.4023C51.8754 71.5581 52.7592 70.6402 53.711 69.7904C54.7309 70.0623 55.7167 70.7082 56.8725 70.6402C57.7564 70.6402 58.2323 69.6204 58.3683 68.9745C58.4363 68.8385 58.4703 68.8045 58.5722 68.7365C58.8782 68.4646 59.1501 68.2606 59.5581 68.1926C59.6941 68.1586 59.83 68.0567 59.966 67.9887C60 68.0907 60.068 68.2266 60.136 68.3966C60.4079 68.9745 61.3598 69.6544 61.4958 70.6062C61.2238 72.068 61.1898 72.3739 59.7281 72.9518C57.7904 73.6317 55.9547 73.0878 54.6289 75.1615C53.6091 76.1473 51.7394 76.6572 50.4816 75.9434C49.9037 75.2975 49.9037 74.1416 49.0538 73.5977C47.3201 72 44.3286 72.7479 42.9348 70.7762C41.949 68.8725 41.779 66.187 42.187 64.1133C42.6969 62.7875 43.6827 61.5297 43.6827 60C43.6487 57.9603 45.2125 55.4788 46.9462 54.9009ZM41.0652 68.7365C41.5411 73.6657 45.2465 72.6119 48.3059 74.4136C49.1218 75.2975 49.1218 76.2493 49.8017 76.7932C45.9943 78.5949 46.0283 80.7705 40.8272 76.9632C37.9717 73.2918 40.2833 70.6062 35.5241 67.6487C34.3683 66.4929 36.034 65.7111 36.4759 64.6572C36.9178 63.3994 35.5241 62.4816 35.4561 61.4278C35.5921 60.7819 35.7281 59.796 36.272 59.3541C36.7479 59.0821 37.2918 58.8442 37.6657 58.4363C38.3796 57.8924 39.3994 57.5524 39.9773 57.0085C40.2833 57.5864 40.5892 58.1303 40.8952 58.6062C41.4391 59.2521 41.847 60.17 42.4249 60.7139C41.4731 63.9093 40.2833 63.7054 41.0652 68.7365ZM47.796 81.0765C48 85.3258 44.5326 88.6572 40.7592 89.949C39.0935 90.7649 36.8159 91.1048 35.6261 92.2606C35.796 91.8867 36 91.1048 36.272 89.949C37.5977 85.6657 39.8754 81.1105 44.4646 79.8187C44.7025 79.8527 44.9745 79.8867 45.2125 79.9207C45.5864 79.8867 45.9263 79.8187 46.2663 79.6827C44.6685 81.0085 42.9688 84 41.983 85.5977C40.6572 88.1133 37.5637 89.3371 36.5099 90.7989C38.3456 90.4589 41.745 88.3513 42.9348 86.2096C44.0567 84.17 46.1983 80.8725 47.1841 79.2408C47.2521 79.4448 47.3541 79.7167 47.5241 80.0906C47.5921 80.2266 47.6601 80.3626 47.762 80.5326C47.762 80.6686 47.796 80.9065 47.796 81.0765ZM59.4561 95.728C59.3541 95.728 59.2521 95.728 59.1501 95.728C59.1501 95.6261 59.1162 95.5581 59.1162 95.4561C60.5099 95.3201 63.7734 94.7422 63.6374 94.6062C63.6034 94.1643 60.3059 94.6062 59.0142 95.1161C58.9462 94.8782 58.8442 94.6742 58.7082 94.4703C59.864 93.9604 62.7875 92.2606 62.6516 92.1586C62.5156 91.7507 59.4561 93.3824 58.5382 94.2323C58.4023 94.0623 58.2663 93.9264 58.0963 93.7904C58.1303 93.7564 58.1643 93.7564 58.1983 93.7224C59.864 92.6006 61.9377 90.5949 64.1473 90.4589C69.8584 89.779 69.2125 97.2238 59.4561 95.728ZM58.0623 93.1785C57.9603 93.3144 57.8584 93.4164 57.7904 93.5184C57.6204 93.4164 57.4504 93.3145 57.2465 93.2125C58.7082 92.2946 60.136 89.5071 59.694 88.1133C59.5241 88.0793 59.3541 89.5071 58.4703 91.0028C57.9263 91.9547 57.2805 92.6686 56.9065 93.0765C56.7026 93.0085 56.4986 92.9745 56.2946 92.9405C56.9405 92.0227 57.5864 88.3513 57.0425 88.0793C56.8725 88.0793 56.8045 89.2351 56.5326 90.5949C56.3286 91.6147 56.0906 92.4646 56.0227 92.8725C55.8187 92.8725 55.5807 92.8725 55.3768 92.8725C55.3428 92.6346 55.3428 92.4306 55.3088 92.1926C55.3428 91.5807 55.3088 90.8669 55.2408 90.153C55.3088 78.6629 65.813 84.5779 58.0623 93.1785ZM57.8244 96.9519C56.8045 99.6714 52.6572 98.0057 53.847 95.3541C54.8669 92.8725 58.7762 94.4363 57.8244 96.9519ZM54.3569 89.847C54.6969 90.9348 54.6969 92.1586 54.9348 93.0085C54.7309 93.0765 54.5269 93.1445 54.3229 93.2465C54.221 91.9207 52.8612 89.881 51.8074 89.6091C51.7054 89.745 52.4533 90.5269 53.1331 91.6147C53.5751 92.3286 53.881 93.0425 54.085 93.4164C53.915 93.5184 53.745 93.6544 53.6091 93.8244C53.5411 93.7904 53.4731 93.7224 53.4391 93.6544C52.2493 92.7365 50.8895 90.4589 49.3598 90.2889C50.3796 91.1048 51.9093 93.3484 53.4051 94.0623C53.2351 94.2663 53.0991 94.5383 52.9632 94.8102C50.8555 93.1785 47.2521 91.1728 47.4561 87.9434C48 83.6261 54.119 86.8215 54.3569 89.847ZM25.2578 81.0765C26.6855 79.1048 29.915 76.8612 32.7365 77.2011C33.1445 77.2691 33.5184 77.4051 33.8244 77.5751C32.6686 78.323 31.5127 79.6827 30.6969 81.2125C29.711 80.9065 25.8017 80.7705 25.2578 81.0765ZM26.8215 74.8895C26.9915 74.8215 27.4674 74.3456 28.2493 73.7337C32.3626 70.2663 33.5524 71.83 36.4419 72.3399C34.3003 72.4419 31.2748 73.0198 31.3428 73.5297C31.2748 73.8017 36.2719 73.1898 37.9377 72.8159C37.9717 72.8839 37.9717 72.9858 38.0057 73.0538C34.4023 75.9773 30.9009 74.9235 26.8215 74.8895ZM34.8782 57.1105C35.932 56.9745 37.0878 56.8385 37.8017 56.7025C38.3796 56.8725 38.9235 56.9745 39.4334 56.9745C38.6176 57.2804 37.7337 57.6204 36.9518 58.1643C36.5099 58.3343 36.102 58.5383 35.796 58.7762C35.4901 58.2323 35.1841 57.6884 34.8782 57.1105ZM34.3003 56.0567C33.9604 55.3768 33.6204 54.6629 33.2805 53.949C34.0623 54.6629 34.9802 55.3428 35.966 55.8867C35.4561 55.8867 34.8782 55.9547 34.3003 56.0567ZM37.3938 55.3768C36.9858 54.9009 36.4419 54.3909 36.136 53.847C35.728 53.3371 35.4561 52.5892 35.1841 52.0113C35.4221 51.9433 35.6601 51.8414 35.864 51.6374C37.3598 50.3456 35.2861 48.034 33.8244 49.3598C32.8045 50.2436 33.4504 51.6374 34.4703 51.9773C34.3683 52.4873 34.5042 53.0992 34.7762 53.711C33.9943 53.1331 33.1785 52.4872 32.4646 52.0453C32.3966 51.9093 32.3626 51.8074 32.2946 51.6714C32.6686 50.8895 32.1926 50.0057 31.4787 49.6317C31.4448 49.5297 31.3768 49.3938 31.3428 49.2918C33.0085 48.6459 34.0623 47.0821 34.6062 45.3144C34.8782 46.4363 35.3201 47.5921 36.272 48.3739C37.2238 49.1898 38.6516 49.6317 39.8754 49.3598C39.2974 50.2436 38.8895 51.2635 38.5836 52.2493C38.6516 53.7111 39.1275 55.2068 39.7394 56.5666C39.1275 56.1926 38.2096 55.8187 37.3938 55.3768ZM33.0765 38.4816C31.2408 36.5099 34.2663 33.6204 36.17 35.4901C38.2096 37.5298 35.0142 40.6572 33.0765 38.4816ZM32.5326 39.3654C32.7026 39.5014 32.8725 39.6374 33.0425 39.7394C32.1926 40.6232 30.4249 43.0368 30.6629 43.1388C30.8669 43.4108 32.8045 40.9972 33.3824 39.9094C33.5524 39.9773 33.7224 40.0453 33.8583 40.0793C33.7224 40.4193 33.5864 40.9632 33.4164 41.5751C33.1105 42.6289 32.7705 43.4787 32.9065 43.5467C33.3484 43.6827 34.1983 41.2351 34.2663 40.1473C34.4023 40.1473 34.5043 40.1813 34.6402 40.1473C34.4703 40.8272 34.3343 41.6431 34.3003 42.4589C34.0963 44.0227 33.7564 45.6544 32.8045 46.7762C29.2011 51.3314 24.3399 45.6544 32.1926 39.7394C32.3286 39.6034 32.4306 39.4674 32.5326 39.3654ZM27.1615 60.272C29.0992 61.4618 31.9547 63.7054 32.0227 65.983C31.5128 65.677 31.0028 65.3711 30.4589 64.9972C28.3513 63.6374 26.8555 62.1756 26.5836 62.3796C27.2635 63.9094 29.4051 65.6091 31.4787 66.6289C26.0736 65.1671 24.17 61.2238 21.4504 57.8923C23.1161 58.9122 25.5637 59.2861 27.1615 60.272ZM29.677 67.4788C25.4957 68.2606 21.0085 70.7082 18.6629 72.8159C20.5326 72.5439 23.762 70.5382 26.4816 69.5864C27.8074 69.0085 29.2011 68.6685 30.5949 68.3626C29.2011 69.1445 28.1133 70.6062 26.7875 71.6941C23.1501 75.2295 17.949 72.7479 13.8697 75.5354C19.1728 69.0765 21.2804 66.051 29.677 67.4788ZM52.3173 95.0142C52.5213 95.0822 52.6572 95.1501 52.7932 95.1841C52.7252 95.3881 52.6912 95.5921 52.6572 95.796C51.5014 95.3881 48.5779 94.7422 48.5779 94.9802C48.4079 95.2861 51.4334 96.068 52.6232 96.136C52.6232 96.3059 52.6232 96.4759 52.6572 96.6459C52.2833 96.6799 51.7394 96.7819 51.0935 96.8499C50.0057 96.9858 49.0878 97.0198 49.0878 97.1898C49.1558 97.6657 51.7394 97.4278 52.7252 97.0198C52.7592 97.1558 52.8272 97.2578 52.8612 97.3598C52.1813 97.4618 51.3654 97.6997 50.6176 98.0057C49.1218 98.4476 47.4901 98.8215 46.0623 98.4136C40.5212 97.0198 43.7167 90.255 52.3173 95.0142ZM66.6629 84.9858C67.0368 85.4618 67.6827 86.1077 68.3286 86.9235C65.2011 85.6997 62.2096 84.204 59.3541 82.5382C60.3059 81.8584 61.2238 81.6204 62.1077 81.4844C62.1756 81.5524 62.2436 81.6204 62.3116 81.7224C63.4334 82.9462 64.9632 84.034 66.6629 84.9858ZM65.3371 79.6147C62.7535 80.6686 60.9518 79.7507 58.4023 81.8244C57.4844 82.3003 56.9065 81.9263 55.9887 81.6204C53.5071 80.8725 53.2351 83.796 50.2776 81.8924C49.1558 81.2465 48.4419 80.4306 47.966 79.8527C47.762 79.5128 47.5581 79.2748 47.4561 79.1048C48.4079 78.4929 49.2238 77.6091 50.0397 76.9292C50.3456 77.1331 50.7875 77.2691 51.4334 77.3031C54.4249 77.5411 55.0028 75.7054 56.9405 74.4136C58.3343 74.1756 59.966 73.9717 61.1218 73.0878C62.7875 74.5836 66.051 74.7195 67.8867 73.0198C68.1926 75.3314 67.8527 78.4589 65.3371 79.6147ZM68.0567 71.1501C67.9207 71.4561 67.7507 71.7281 67.5807 71.966C67.5807 71.966 67.5807 71.966 67.5807 72C66.051 74.1756 63.2295 73.8697 61.1898 72.9518C61.3938 72.7819 61.5637 72.6119 61.6997 72.4079C62.0057 71.6261 62.0737 70.9802 61.9717 70.4363C62.5836 70.1303 63.6034 69.2465 63.9094 68.7365C66.3229 65.7111 63.5354 64.8612 64.2493 62.2096C64.7252 61.0198 64.2153 59.898 63.5694 58.8782C63.8414 55.5128 60.8159 54.5609 57.9943 54.6629C57.3484 54.7649 56.8045 54.6629 56.2606 54.4589C58.0623 51.3315 63.6714 47.3541 66.8669 51.0935C69.5524 53.5411 72.4079 56.6006 72.5439 60.5099C72.6119 61.6997 73.4958 62.6516 74.2436 63.5014C75.0595 64.8952 74.2436 66.6969 73.1218 67.7167C71.694 69.1785 69.1445 69.3824 68.0567 71.1501ZM98.6515 74.1077C97.4957 74.4816 95.6941 75.2635 94.0963 75.1955C92.5326 75.2975 91.2408 74.7875 90.4249 74.4136C88.8612 72.4079 86.2776 70.7762 83.83 69.6544C85.4278 70.1643 87.2975 70.6742 88.8612 71.2861C93.1105 72.7479 96.5439 74.0057 96.6799 73.6997C96.4079 72.9858 91.0708 70.6742 86.6176 69.3824C87.6034 69.4164 88.5552 69.3824 89.4731 69.2465C94.5042 69.3145 95.3881 69.7904 98.6515 74.1077ZM93.4844 63.9433C94.9802 64.5212 95.898 64.8272 96.306 64.8612C96.204 64.9632 96.068 65.0992 95.898 65.3371C92.4306 69.5184 84.7479 68.0227 79.6827 67.6827C81.7904 67.4448 84.5439 66.5949 86.2436 66.4249C91.0028 65.6771 94.9122 65.915 94.9462 65.5751C90.7309 63.8754 82.2663 65.847 77.813 67.5127C78.187 66.9008 78.5609 66.323 78.9008 65.6771C82.3683 62.2436 89.2011 62.3796 93.4844 63.9433ZM76.8952 57.5184C77.0312 58.4363 76.7252 59.6261 77.1671 60.5779C77.6091 61.6317 78.6969 62.0397 78.6289 63.1275C78.3229 64.8952 77.0652 66.5269 76.1473 68.0567C75.6374 69.4844 75.8414 71.0821 75.1615 72.4419C71.5921 74.9235 73.2578 77.6431 70.6742 77.745C69.8924 77.779 68.9065 77.5411 68.2266 77.779C68.8725 76.1133 68.8385 74.1077 68.1247 72.7139C68.3966 72.4079 68.6346 72.068 68.8045 71.6601C69.5524 70.5382 70.8102 70.3683 71.966 69.7564C74.1756 68.8045 76.2833 66.4929 75.6714 63.8414C75.5014 62.9235 74.7196 62.3456 74.2436 61.6317C74.0737 61.3598 73.9037 61.0878 73.8017 60.7819C73.6997 59.4561 73.4618 58.0963 72.9178 56.8725C72.6119 56.2266 72.17 55.4788 71.6601 54.7309C73.4618 55.3088 76.4533 55.5128 76.8952 57.5184ZM68.9065 45.5184C68.7365 45.6204 68.6006 45.7224 68.4646 45.8244C68.7366 45.1445 69.0085 44.2946 69.2465 43.4788C69.2805 43.4788 69.3145 43.4788 69.3145 43.4448C70.0283 43.3088 70.6742 43.0708 71.2861 42.7309C70.1983 43.4788 69.3484 44.4306 68.9065 45.5184ZM76.3173 42.5609C78.289 42.6629 80.7025 44.4306 82.8102 44.6346C81.7564 45.0425 80.6006 45.5864 79.9547 45.8244C76.4533 47.3541 72.4079 47.5921 69.2804 45.9263C70.4023 45.6884 71.83 45.2465 73.0538 45.1785C74.7535 44.8725 76.9972 45.0765 78.051 44.6346C76.2153 43.8867 72.238 44.0907 69.7564 45.1105C71.4221 43.7507 73.4278 42.017 76.3173 42.5609ZM73.6997 30.5949C72.6799 34.1303 76.2153 39.3994 69.3824 42.9009C69.5864 42.255 69.7904 41.6091 69.9603 41.1331C70.5722 39.0935 72.068 36.6799 72.17 35.2521C70.6742 36.4419 69.1785 39.3994 68.3626 42.255C67.3428 37.4618 71.2521 33.9943 73.6997 30.5949ZM62.5156 43.6827C62.9575 43.8527 63.6034 43.9547 63.8074 44.3626C64.0113 45.1785 64.6912 45.8923 65.4051 46.2663C69.5524 47.4221 69.2465 50.5836 71.5581 53.3371C72.034 53.813 72.5099 54.187 72.9518 54.4929C72.3739 54.4249 71.83 54.3909 71.3541 54.3909C69.3824 51.5694 66.2889 48.5439 63.4334 48.7139C63.3314 48.136 62.9235 47.4901 62.4816 47.0142C61.2578 45.4164 59.0482 46.4363 57.6544 47.2521C56.9405 47.3881 56.2606 47.0821 55.5468 46.7762C56.3286 46.6062 57.2125 46.1983 58.0283 45.6884C59.3541 44.5666 60.5439 42.8329 62.5156 43.6827ZM65.0312 35.1841C64.8952 35.2861 64.5892 35.898 64.0453 36.7479C61.2578 41.3711 59.6261 40.2493 56.7705 40.7252C58.7422 39.9433 61.4278 38.4136 61.1898 37.9377C61.1898 37.6317 56.3286 39.9773 55.0368 40.8272C55.0028 40.7932 54.9688 40.7592 54.9009 40.7592C57.4164 36.6119 61.1218 36.5099 65.0312 35.1841ZM57.5184 28.8952C57.8244 31.3088 57.0085 35.1502 54.7309 36.8499C54.5269 36.9858 54.2889 37.0878 54.085 37.1898C54.3909 35.864 54.289 34.0623 53.779 32.3626C54.9348 31.6487 57.3484 29.4731 57.5184 28.8952ZM55.1728 27.6034C55.5467 27.8754 55.7847 28.7252 55.9887 29.2351C55.1048 29.813 54.051 30.7649 53.4731 31.5128C52.9972 30.255 52.2833 29.0992 51.3994 28.3513C52.1813 27.2635 54.051 26.5496 55.1728 27.6034ZM48.9518 30.9688C49.4618 29.4731 49.7677 28.1473 50.0397 27.7394C50.6516 28.8612 52.4533 30.9009 52.7252 32.3626C53.2691 33.8584 53.2011 36.068 53.6431 37.3258C50.4136 38.2096 47.966 33.8923 48.9518 30.9688ZM53.3711 40.8272C55.0368 41.711 57.5524 42.9008 59.4561 43.0368C58.7082 43.5807 58.2323 44.4306 57.5184 44.9745C56.6686 45.7564 55.5807 46.0963 54.7309 46.4023C54.017 46.1643 53.3371 46.0963 52.5892 46.5722C50.9235 47.3881 50.0397 49.3598 48.3399 49.8697C47.5241 50.1077 46.7422 49.7677 45.9263 49.9037C43.9887 50.1416 43.3428 52.3173 43.6147 53.949C43.8867 54.7309 44.1246 55.4108 44.3626 55.8527C43.3768 56.9405 42.7649 58.3683 42.6629 59.796C42.6289 60 42.5609 60.17 42.5269 60.3399C42.187 59.6941 41.847 59.0142 41.4391 58.2663C40.5552 56.6686 39.7054 54.3569 39.5694 52.4193C40.0793 50.9235 40.8272 49.4958 42.085 48.4419C44.7365 46.6062 43.0028 43.8187 46.5383 43.4448C48.9519 42.8329 51.5014 42.4929 53.3711 40.8272ZM44.6686 37.3598C46.7422 38.1756 47.898 40.8952 45.3824 42.051C43.5467 43.0708 41.5751 41.2691 40.0113 40.4872C38.5836 39.5014 37.6317 38.9235 37.1898 38.7196C37.3598 38.4816 37.4958 38.2436 37.6317 38.0057C38.1077 38.2096 39.1955 38.5836 40.4193 39.1275C42.085 39.8414 43.3768 40.5552 43.4448 40.4193C43.5467 39.8074 39.0595 37.8017 37.7337 37.7677C37.7677 37.6657 37.8017 37.5637 37.8357 37.4618C39.2974 37.6657 43.0368 37.9037 42.9688 37.7337C43.0708 37.2918 39.3994 36.9518 37.9037 37.1218C37.9037 37.0538 37.9037 36.9858 37.9037 36.9178C38.4136 36.9178 38.9915 36.8499 39.6034 36.8159C39.9093 36.8159 40.1813 36.7819 40.4872 36.7479C41.915 36.6459 43.4788 36.7139 44.6686 37.3598ZM43.0368 29.0652C47.4221 29.813 43.8187 35.728 40.9292 35.864C40.9292 35.864 40.9292 35.864 40.8952 35.864C40.2493 35.932 39.6374 36.034 39.0595 36.17C38.6176 36.204 38.2096 36.238 37.8357 36.3059C37.7677 35.966 37.6657 35.6261 37.4618 35.2861C38.7875 35.0142 42.017 33.7904 41.813 33.5524C41.813 33.2465 38.3796 34.4023 37.2578 34.9802C37.2578 34.9802 37.2578 34.9802 37.2578 34.9462C38.5836 33.8244 39.5014 31.3768 41.5071 30.5269C39.7054 30.221 38.0057 33.0765 37.0538 34.7082C37.0538 34.6742 37.0198 34.6742 37.0198 34.6402C36.7139 34.3003 36.3739 34.0623 36.034 33.8924C37.7677 31.9547 39.9093 28.7252 43.0368 29.0652ZM32.7026 27.0935C34.5043 21.5864 41.0312 25.2238 35.694 33.4844C35.6601 33.5864 35.5921 33.6884 35.5581 33.7564C35.4561 33.7224 35.3881 33.6884 35.2861 33.6884C35.728 32.3626 36.5099 29.1671 36.34 29.2011C35.932 29.0652 35.0142 32.2606 34.9122 33.6204C34.6742 33.5864 34.4363 33.6204 34.1983 33.6544C34.1983 32.3966 33.8244 29.0312 33.6884 29.1332C33.2465 29.0992 33.5184 32.5666 33.8924 33.7564C33.6884 33.8244 33.4844 33.8924 33.2805 33.9943C33.2805 33.9603 33.2465 33.9263 33.2465 33.8924C32.9405 31.8867 31.9547 29.1671 32.7026 27.0935ZM32.8045 33.7224C32.8725 33.8924 32.9405 33.9943 33.0085 34.1303C32.8385 34.2323 32.6686 34.3683 32.5326 34.5042C32.2946 32.8045 30.323 30.3569 28.8612 30.221C28.7932 30.3569 29.983 31.1048 31.0028 32.4986C31.6487 33.3824 32.0227 34.2663 32.2606 34.7762C32.1247 34.9462 31.9887 35.0822 31.8867 35.2521C31.3088 34.3003 28.2153 32.1926 27.7734 32.6006C27.7054 32.7366 28.7252 33.2804 29.881 34.0963C30.7309 34.7082 31.4108 35.2861 31.7507 35.4901C31.6487 35.6941 31.5807 35.864 31.5128 36.068C31.3088 36 31.0708 35.932 30.8669 35.864C30.3229 35.5581 29.6431 35.3201 28.9632 35.1161C18.4249 30.3569 28.1133 23.1501 32.8045 33.7224Z" fill="#C5AB90"/>
</svg>
