<svg width="100" height="120" viewBox="0 0 100 120" fill="none" xmlns="http://www.w3.org/2000/svg">
<path d="M29.7245 70.8981C30.2036 70.3233 31.8084 66.8502 31.5688 65.0538C31.5209 64.7664 31.4491 64.5269 31.3054 64.3113C31.4251 63.8323 31.5209 62.97 30.7545 62.2035C30.5149 61.964 30.2275 61.8682 29.9401 61.9401C29.2215 62.1077 28.7185 63.2574 28.503 63.8562C28.0958 64.2155 27.7605 64.8383 27.4491 65.7245C26.9221 67.2095 25.0539 70.2514 24 71.952C24 71.9041 24 71.8562 23.976 71.8083C23.9042 71.2095 23.7844 70.6107 23.6646 70.0598C24.7185 68.1436 28.7425 60.5269 28.0718 58.467C27.976 58.1796 27.8563 57.9401 27.7605 57.7245C27.8563 57.461 27.9521 56.982 27.8802 56.1916C27.8084 55.449 27.6167 54.4191 26.8742 54.2754C26.1796 54.1556 25.509 54.8502 24.6467 56.6227C24.5269 56.8622 24.4072 57.1017 24.2874 57.3413C23.4251 59.0898 23.1377 59.6646 23.1617 60.0239C22.491 61.3173 21.7245 62.8502 21.2455 63.8323C21.1736 63.2814 21.0778 62.8263 20.9581 62.5867L20.8623 62.3951C20.4311 61.5089 20.0239 60.7185 19.6167 60.0958C20.6706 54.9461 20.1916 53.1017 19.2335 52.2155C19.3772 51.0658 18.9221 49.4371 17.8203 48.7904C17.2455 48.455 16.3832 50.467 15.9281 51.6407C15.473 52.6227 14.9461 54.1077 14.7784 55.7125C13.7724 58.6107 11.0898 67.2813 11.0419 67.3772C10.6347 68.6706 10.1796 72.2394 9.98801 73.964C9.72454 73.7484 9.46107 73.5089 9.26945 73.3173C9.05388 73.0778 8.57484 71.6646 8.19161 70.5149C7.85628 69.485 7.47305 68.3352 7.06586 67.3772C6.65868 66.3951 6.77844 65.2694 6.9461 63.8562C7.11377 62.2993 7.32933 60.3592 6.9461 57.7963C6.41916 54.3712 4.86227 52.982 4 52.4311C3.90419 52.3832 3.80838 52.3113 3.71257 52.2634C3.42515 51.4251 2.80239 50.6826 2.2515 50.1556C1.62874 49.5329 1.36527 49.9161 1.1976 50.5389C0.838323 51.8562 0.718563 53.5089 0.766467 53.9401C0.742515 54.5628 0.790418 55.2095 0.958083 55.7844C0.958083 56.479 1.02994 57.1975 1.1497 57.8921C1.43712 59.5448 0.910179 62.3712 0.479041 64.6227C0.215569 66.0598 0 67.1855 0 67.8562C0.0239521 68.7903 0.57485 70.8502 1.29341 73.437C1.89221 75.6406 2.58682 78.1317 2.94611 80.1436C3.13772 81.1257 3.25748 81.9161 3.35329 82.5628C3.66467 84.6945 3.80838 85.5807 5.55688 87.8322C7.61676 90.4909 13.1257 101.82 15.5688 108.048C17.8443 113.796 17.1976 119.329 17.1976 119.377C17.1736 119.665 17.3653 119.904 17.6527 119.952C17.6766 119.952 17.7006 119.952 17.7245 119.952C17.988 119.952 18.2036 119.76 18.2275 119.497C18.2515 119.257 18.8982 113.653 16.5269 107.665C14.2515 101.868 8.67065 90.1556 6.37125 87.2095C4.79042 85.1736 4.69461 84.5269 4.38323 82.4191C4.28742 81.7724 4.16766 80.958 3.97605 79.952C3.59281 77.9161 2.8982 75.3772 2.2994 73.1736C1.67665 70.8502 1.07784 68.6466 1.05389 67.8562C1.05389 67.2813 1.26946 66.1077 1.50898 64.8382C1.94012 62.4909 2.49102 59.5688 2.17964 57.7484C1.7485 55.3053 2.17964 53.3412 2.46706 52.982C2.63473 52.982 3.11377 53.0778 3.66467 53.461C4.47904 54.0359 5.55688 55.2814 5.96407 57.988C6.10778 58.9221 6.15568 59.7844 6.17964 60.5508C5.36526 60.5508 4.52694 60.7185 3.78443 61.0299C3.61676 61.1017 3.52096 61.2933 3.61676 61.485C3.66467 61.6047 3.80838 61.7005 3.92814 61.7005C3.97604 61.7005 4.02395 61.7005 4.07185 61.6766C4.74251 61.3892 5.46107 61.2454 6.20359 61.2454C6.17963 62.2035 6.08383 63.0418 6.01197 63.7843C5.89221 64.8622 5.7964 65.8442 5.94011 66.7544C5.05389 67.2095 3.73652 67.2574 2.8982 66.9939C2.73054 66.946 2.53892 67.0418 2.46706 67.2095C2.41916 67.3772 2.51497 67.5688 2.68263 67.6407C3.08982 67.7604 3.56886 67.8323 4.09581 67.8323C4.76646 67.8323 5.48502 67.7125 6.10778 67.4251C6.15568 67.5448 6.17963 67.6646 6.22754 67.7844C6.61077 68.7185 6.99401 69.8442 7.32934 70.8742C7.95209 72.7185 8.28742 73.7005 8.67065 74.0837C9.22155 74.6346 10.1557 75.3771 10.2036 75.4011C10.3473 75.5209 10.5389 75.5448 10.7066 75.473C10.8742 75.4011 10.994 75.2335 11.018 75.0658C11.018 75.0179 11.6647 69.3413 12.1437 67.7604C13.0299 64.8862 15.473 57.1017 16.0718 55.5209C16.1437 55.3053 16.2395 55.0898 16.3114 54.8502C16.6467 53.9161 17.1018 52.6466 17.5808 52.479C17.6287 52.455 17.7006 52.4311 17.8922 52.5269C17.9401 52.5508 18.012 52.5987 18.0599 52.6227C18.7784 52.982 19.9281 53.5808 18.8982 59.1377C18.5629 58.8502 18.2036 58.7305 17.8203 58.7784C17.4132 58.8502 17.0778 59.1137 16.8144 59.6407C16.5988 59.5688 16.3832 59.449 16.1676 59.3532C16 59.2574 15.7844 59.3293 15.7126 59.497C15.6168 59.6646 15.6886 59.8562 15.8563 59.952C16.0718 60.0718 16.3114 60.1676 16.5509 60.2634C16.3353 60.8622 16.1677 61.6526 16.0239 62.6347C16.0239 62.6586 15.976 63.3293 15.976 64.2874C15.8084 64.7664 14.8024 67.8562 15.3054 71.6646C15.497 73.0059 15.5209 74.1077 15.4491 75.1376C15.3772 75.0658 15.3054 75.0418 15.2096 75.0418C14.1317 75.0418 13.0778 74.8502 12.0718 74.4909C11.9042 74.4191 11.7126 74.5149 11.6407 74.7065C11.5689 74.8742 11.6647 75.0658 11.8563 75.1376C12.9341 75.5209 14.0838 75.7125 15.2335 75.7125C15.3054 75.7125 15.3772 75.6885 15.4491 75.6406C15.3772 76.455 15.2575 77.2454 15.1377 78.0838C14.994 79.0418 14.8503 80.0478 14.7545 81.2215C14.7066 81.8203 14.6108 82.4909 14.4671 83.1616C13.4611 83.1137 10.994 82.8981 9.82035 82.0598C9.67664 81.94 9.46107 81.9879 9.34131 82.1317C9.22155 82.2754 9.26945 82.4909 9.41317 82.6107C10.7066 83.5209 13.1736 83.7604 14.3233 83.8322C13.6048 86.9939 12.2635 90.4191 12.0958 90.7304C11.9521 90.946 12 91.2574 12.2156 91.425C12.3114 91.4969 12.4072 91.5209 12.5269 91.5209C12.6706 91.5209 12.8383 91.449 12.9341 91.3292C13.2455 90.922 15.497 84.8861 15.7844 81.2933C15.8802 80.1436 16.0239 79.1616 16.1437 78.2275C16.4311 76.2155 16.7185 74.3233 16.3353 71.5209C16.1916 70.443 16.1676 69.4131 16.2395 68.479C16.4311 69.7245 16.7425 70.7305 17.2934 71.0179C17.8682 71.3293 18.3952 71.473 18.9461 71.473C19.5449 71.473 20.1437 71.2814 20.7664 70.9221C21.3173 70.5867 21.5329 68.4071 21.5329 66.3233C22.1317 67.6646 22.8503 69.6526 23.1377 71.9281C23.4012 74.0358 22.9221 76.1676 22.467 78.2514C22.0359 80.1915 21.6287 82.0359 21.8203 83.8083C22.1557 87.0897 20.6946 90.2993 20.4551 90.6825C20.3114 90.8262 20.2635 91.0179 20.3353 91.2095C20.4072 91.425 20.5988 91.5688 20.8144 91.5688C20.8623 91.5688 20.9341 91.5688 20.982 91.5448C21.485 91.3771 22.467 89.0298 22.7784 86.4191C25.988 90.9939 27.4251 97.2214 27.4491 97.2933C27.473 97.461 27.6167 97.5568 27.7844 97.5568C27.8084 97.5568 27.8323 97.5568 27.8563 97.5568C28.0479 97.5089 28.1437 97.3412 28.1197 97.1496C28.0479 96.8622 26.491 90.1077 22.8742 85.3891C22.8982 84.8143 22.8982 84.2634 22.8263 83.7125C22.6587 82.0837 23.0419 80.3352 23.473 78.467C23.8084 76.934 24.1676 75.3532 24.2395 73.7484L24.2634 73.7245C24.4072 73.5089 27.8323 68.3113 28.5988 66.0598C28.9341 65.1257 29.2215 64.7185 29.4371 64.5508C29.509 64.5029 29.5569 64.479 29.6048 64.455C29.8203 64.3832 30.1557 64.5029 30.6107 64.8382C30.6587 64.8861 30.7066 65.0059 30.7305 65.1736C30.9221 66.5868 29.461 69.7963 29.1018 70.2275C28.4551 70.9939 26.2754 77.2215 25.6287 79.8802C25.1257 81.8921 25.5808 83.1855 26.5868 85.9879C27.1137 87.473 27.8323 89.4849 28.6467 92.3113C30.0838 97.2454 29.8443 97.94 29.6527 98.4909C29.461 99.0179 29.3652 99.473 29.6048 100.718C30.8982 107.377 30.3233 112.934 30.3233 112.982C30.2994 113.269 30.491 113.509 30.7784 113.533C30.8024 113.533 30.8263 113.533 30.8263 113.533C31.0898 113.533 31.3054 113.341 31.3293 113.078C31.3533 112.838 31.9281 107.329 30.5868 100.503C30.3712 99.449 30.491 99.1616 30.6107 98.8262C30.8742 98.0598 31.1616 97.2694 29.6287 92.0238C28.7904 89.1735 28.0718 87.1376 27.5449 85.6526C26.5628 82.8742 26.2036 81.8442 26.6108 80.1197C27.1856 77.1975 29.3173 71.4251 29.7245 70.8981ZM25.1257 64.982C24.8383 64.9101 24.5748 64.7904 24.3114 64.6466C24.1437 64.5508 23.9521 64.5987 23.8323 64.7664C23.7365 64.9341 23.7844 65.1257 23.9521 65.2454C24.2155 65.4131 24.5269 65.5329 24.8143 65.6287C24.3353 66.6586 23.8084 67.6885 23.3054 68.6466C22.8263 67.0179 22.2275 65.7245 21.8443 64.958C23.3293 61.9161 25.006 58.6107 25.2934 58.2754C25.7006 57.7724 25.988 57.5568 26.2036 57.5568C26.3233 57.6047 26.8024 57.8442 27.1377 58.8263C27.4012 59.5927 26.4191 62.2035 25.1257 64.982ZM16.6467 76.4071C16.7185 76.2394 16.9341 76.1676 17.1018 76.2394C18.0838 76.7185 19.2814 76.7664 20.3114 76.3832C20.479 76.3113 20.6706 76.4071 20.7425 76.5748C20.8144 76.7424 20.7185 76.958 20.5509 77.0059C20.0239 77.1975 19.4491 77.3173 18.8742 77.3173C18.1557 77.3173 17.4371 77.1496 16.7904 76.8382C16.6227 76.7903 16.5509 76.5748 16.6467 76.4071ZM16.7185 74.1317C16.7904 73.964 16.982 73.8682 17.1736 73.94C18.1078 74.3233 19.1377 74.5149 20.1676 74.467C20.3593 74.443 20.503 74.6107 20.5269 74.7784C20.5269 74.97 20.3832 75.1137 20.2156 75.1376C20.0958 75.1376 19.9521 75.1376 19.8323 75.1376C18.8503 75.1376 17.8443 74.946 16.9341 74.5628C16.7185 74.5149 16.6467 74.2993 16.7185 74.1317ZM27.8323 103.281C27.7844 103.473 27.6167 103.569 27.4251 103.521C26.5628 103.305 25.8203 103.377 25.1736 103.689C24.7664 103.88 24.3832 104.144 23.976 104.407C23.6646 104.623 23.3293 104.838 22.994 105.03C22.2994 105.413 21.6287 105.605 21.006 105.605C20.7425 105.605 20.503 105.581 20.2635 105.509C20.0718 105.461 19.976 105.269 20.0239 105.078C20.0718 104.91 20.2635 104.79 20.4551 104.838C21.2215 105.078 22.0838 104.742 22.6587 104.407C22.97 104.239 23.2814 104.024 23.5928 103.832C24 103.569 24.4072 103.281 24.8623 103.066C25.6527 102.683 26.5628 102.611 27.5688 102.85C27.7605 102.922 27.8802 103.09 27.8323 103.281Z" fill="#C5AB90"/>
<path d="M99.0179 64.6468C98.5867 62.3714 98.0598 59.569 98.3472 57.9163C98.467 57.2456 98.5388 56.5271 98.5388 55.8324C98.7065 55.2815 98.7544 54.6109 98.7304 53.9881C98.7783 53.5331 98.6586 51.8803 98.2993 50.5869C98.1316 49.9642 97.8682 49.6049 97.2454 50.2037C96.6945 50.7307 96.0718 51.4971 95.7843 52.3115C95.6885 52.3594 95.5927 52.4073 95.4969 52.4792C94.6107 53.0061 93.0778 54.4193 92.5508 57.8444C92.1676 60.4073 92.3592 62.3474 92.5508 63.9043C92.6945 65.3175 92.8382 66.4432 92.4311 67.4253C92.0239 68.3833 91.6406 69.557 91.3053 70.563C90.9221 71.7127 90.443 73.1498 90.2275 73.3654C90.0358 73.557 89.7484 73.7965 89.5089 74.0121C89.2933 72.3115 88.8382 68.7187 88.455 67.4253C88.4311 67.3294 85.7484 58.6588 84.7185 55.7606C84.5508 54.1558 83.9999 52.6468 83.5688 51.6887C83.1137 50.5151 82.2275 48.5031 81.6766 48.8385C80.5748 49.4852 80.1197 51.0899 80.2634 52.2636C79.3053 53.1498 78.8263 54.9941 79.8802 60.1438C79.473 60.7666 79.0658 61.557 78.6347 62.4432L78.5389 62.6348C78.4191 62.8744 78.3233 63.3055 78.2514 63.8803C77.7724 62.8983 77.0059 61.3654 76.3353 60.072C76.3592 59.7127 76.0957 59.1378 75.2095 57.3893C75.0898 57.1498 74.97 56.9103 74.8502 56.6708C73.988 54.8983 73.3173 54.2037 72.6227 54.3235C71.8562 54.4672 71.6886 55.4732 71.6167 56.2396C71.5449 57.03 71.6407 57.5091 71.7365 57.7726C71.6167 57.9881 71.5209 58.2276 71.4251 58.5151C70.7305 60.5749 74.7784 68.1917 75.8323 70.1079C75.7125 70.6588 75.5927 71.2576 75.5209 71.8564C75.5209 71.9043 75.5209 71.9522 75.4969 72.0001C74.4191 70.2995 72.5508 67.2576 72.0478 65.7726C71.7365 64.8863 71.4011 64.2875 70.994 63.9043C70.7784 63.3055 70.2754 62.1558 69.5568 61.9881C69.2694 61.9163 68.982 62.0121 68.7425 62.2516C67.976 63.0181 68.0718 63.9043 68.1916 64.3594C68.0478 64.551 67.976 64.7905 67.9281 65.1019C67.6886 66.8983 69.2934 70.3713 69.7724 70.9462C70.2035 71.4731 72.3353 77.2456 73.0538 80.1917C73.485 81.9162 73.1017 82.9462 72.1197 85.7246C71.5928 87.2097 70.8742 89.2456 70.0359 92.0959C68.5029 97.3414 68.7904 98.1318 69.0538 98.8983C69.1736 99.2336 69.2694 99.521 69.0778 100.575C67.7604 107.401 68.3113 112.91 68.3353 113.15C68.3592 113.413 68.5748 113.605 68.8383 113.605C68.8622 113.605 68.8862 113.605 68.8862 113.605C69.1736 113.581 69.3652 113.317 69.3413 113.054C69.3413 113.006 68.7664 107.449 70.0598 100.79C70.2993 99.545 70.1796 99.0899 70.0119 98.5629C69.8203 98.0121 69.5808 97.3174 71.0179 92.3833C71.8323 89.557 72.5508 87.521 73.0778 86.0599C74.0838 83.2576 74.5389 81.9641 74.0359 79.9522C73.3892 77.2935 71.1856 71.066 70.5628 70.2995C70.2035 69.8684 68.7664 66.6588 68.9341 65.2456C68.958 65.078 69.0059 64.9582 69.0538 64.9103C69.5089 64.5989 69.8203 64.4552 70.0598 64.5271C70.1077 64.551 70.1556 64.5749 70.2275 64.6228C70.4431 64.7905 70.7544 65.1977 71.0658 66.1318C71.8323 68.3594 75.2574 73.557 75.4011 73.7965L75.4251 73.8204C75.4969 75.4252 75.8323 77.0061 76.1915 78.539C76.5987 80.4073 77.0059 82.1558 76.8383 83.7845C76.7904 84.3354 76.7664 84.8863 76.7903 85.4611C73.1736 90.1797 71.6167 96.9342 71.5448 97.2216C71.4969 97.4133 71.6167 97.5809 71.8083 97.6288C71.8323 97.6288 71.8562 97.6288 71.8802 97.6288C72.0239 97.6288 72.1676 97.533 72.2155 97.3653C72.2395 97.2935 73.6766 91.0659 76.8862 86.4911C77.2215 89.1019 78.2035 91.4492 78.6826 91.6168C78.7305 91.6408 78.8023 91.6408 78.8502 91.6408C79.0658 91.6408 79.2574 91.4971 79.3293 91.2815C79.4011 91.0899 79.3293 90.8983 79.2095 90.7546C78.97 90.3713 77.5089 87.1618 77.8442 83.8803C78.0359 82.1079 77.6287 80.2636 77.1975 78.3234C76.7424 76.2636 76.2634 74.1318 76.5269 72.0001C76.8143 69.7486 77.5329 67.7366 78.1317 66.3953C78.1077 68.4791 78.3233 70.6588 78.8981 70.9941C79.5209 71.3774 80.1197 71.545 80.7185 71.545C81.2694 71.545 81.7963 71.4013 82.3712 71.0899C82.9221 70.8025 83.2335 69.7726 83.4251 68.527C83.473 69.4372 83.473 70.4911 83.3293 71.5689C82.946 74.3474 83.2335 76.2636 83.5209 78.2755C83.6646 79.2336 83.8083 80.1917 83.8802 81.3414C84.1676 84.9342 86.4191 90.9701 86.7305 91.3773C86.8263 91.4971 86.97 91.5689 87.1376 91.5689C87.2574 91.5689 87.3532 91.545 87.449 91.4731C87.6646 91.3055 87.7125 91.018 87.5688 90.7785C87.4011 90.4432 86.0598 87.042 85.3412 83.8803C86.467 83.8085 88.9341 83.5929 90.2514 82.6588C90.3951 82.539 90.443 82.3474 90.3233 82.1797C90.2035 82.036 90.0119 81.9881 89.8442 82.1079C88.6466 82.9462 86.2035 83.1618 85.1975 83.2097C85.0538 82.5151 84.958 81.8683 84.9101 81.2695C84.8143 80.0959 84.6706 79.0899 84.5269 78.1318C84.4071 77.2935 84.2873 76.5031 84.2155 75.6887C84.2634 75.7366 84.3353 75.7606 84.4311 75.7606C85.5808 75.7606 86.7065 75.569 87.8083 75.1857C87.976 75.1139 88.0718 74.9222 88.0239 74.7546C87.952 74.5869 87.7604 74.4911 87.5927 74.539C86.5867 74.8983 85.5329 75.066 84.455 75.0899C84.3592 75.0899 84.2634 75.1378 84.2155 75.1857C84.1676 74.1558 84.1915 73.054 84.3592 71.7127C84.8622 67.9043 83.8562 64.7905 83.6885 64.3354C83.6885 63.3773 83.6406 62.6827 83.6406 62.6827C83.4969 61.7007 83.3293 60.9103 83.1137 60.3115C83.3532 60.2157 83.5688 60.1199 83.8083 60.0001C83.976 59.9043 84.0478 59.7127 83.952 59.545C83.8562 59.3774 83.6646 59.3055 83.4969 59.4013C83.2814 59.5211 83.0658 59.6169 82.8502 59.6887C82.5628 59.1857 82.2514 58.8983 81.8442 58.8265C81.461 58.7786 81.1257 58.8983 80.7664 59.1857C79.7365 53.6049 80.8622 53.0301 81.6047 52.6708C81.6766 52.6468 81.7245 52.5989 81.7724 52.575C81.964 52.4792 82.0598 52.5031 82.0838 52.527C82.5388 52.6947 83.0179 53.9642 83.3532 54.8983C83.4251 55.1139 83.5209 55.3534 83.5927 55.569C84.1915 57.1259 86.6347 64.9342 87.5209 67.8085C87.9999 69.3893 88.6466 75.066 88.6466 75.1139C88.6706 75.3055 88.7903 75.4492 88.958 75.521C89.1257 75.5929 89.3173 75.569 89.461 75.4492C89.5089 75.4252 90.443 74.6827 90.9939 74.1318C91.3772 73.7486 91.7125 72.7666 92.3352 70.9223C92.6706 69.9163 93.0538 68.7666 93.437 67.8324C93.4849 67.7127 93.5328 67.5929 93.5568 67.4731C94.1556 67.7606 94.8742 67.8804 95.5688 67.8804C96.0718 67.8804 96.5748 67.8085 96.9819 67.6887C97.1496 67.6408 97.2694 67.4492 97.1975 67.2576C97.1496 67.0899 96.958 66.9702 96.7664 67.042C95.9281 67.3055 94.5867 67.2576 93.7245 66.8025C93.8682 65.8923 93.7724 64.9103 93.6526 63.8324C93.5808 63.0899 93.4849 62.2277 93.461 61.2935C94.1796 61.2935 94.9221 61.4372 95.5927 61.7246C95.6406 61.7486 95.6885 61.7486 95.7364 61.7486C95.8801 61.7486 95.9999 61.6768 96.0478 61.5331C96.1197 61.3654 96.0478 61.1498 95.8802 61.078C95.1137 60.7666 94.2993 60.5989 93.4849 60.5989C93.4849 59.8085 93.5568 58.9702 93.7005 58.036C94.1077 55.3294 95.1855 54.084 95.9999 53.5091C96.5508 53.1259 97.0538 53.0301 97.1975 53.0301C97.4849 53.3893 97.9161 55.3534 97.4849 57.7965C97.1736 59.6169 97.7245 62.539 98.1556 64.8863C98.3951 66.1558 98.6107 67.3294 98.6107 67.9043C98.5867 68.7187 97.9879 70.8983 97.3652 73.2216C96.7664 75.4492 96.0718 77.9642 95.6885 80.0001C95.4969 81.0061 95.3772 81.8204 95.2813 82.4671C94.97 84.5749 94.8742 85.2216 93.2933 87.2576C90.9939 90.2276 85.4131 101.94 83.1376 107.713C80.7664 113.701 81.4131 119.305 81.4371 119.545C81.461 119.808 81.6766 120 81.94 120C81.964 120 81.988 120 82.0119 120C82.2993 119.976 82.4909 119.713 82.467 119.425C82.467 119.377 81.8442 113.844 84.0957 108.096C86.5388 101.892 92.0478 90.539 94.1077 87.8803C95.8562 85.6288 95.9999 84.7426 96.3113 82.6109C96.4071 81.9642 96.5269 81.1737 96.7185 80.1917C97.1017 78.1797 97.7724 75.6887 98.3712 73.4851C99.0897 70.8983 99.6406 68.8384 99.6646 67.9043C99.4969 67.2097 99.2813 66.0839 99.0179 64.6468ZM74.6107 65.6049C74.9221 65.5091 75.2095 65.3893 75.473 65.2216C75.6407 65.1258 75.6886 64.9103 75.5927 64.7426C75.4969 64.5749 75.2814 64.527 75.1137 64.6228C74.8742 64.7666 74.5868 64.8863 74.2993 64.9582C73.0059 62.1797 72.0239 59.569 72.2874 58.8025C72.6227 57.7726 73.1257 57.557 73.1975 57.533C73.4131 57.533 73.7005 57.7486 74.1077 58.2516C74.3712 58.5869 76.0478 61.8923 77.5568 64.9342C77.1736 65.7007 76.5748 67.0181 76.0957 68.6229C75.6167 67.6648 75.0898 66.6348 74.6107 65.6049ZM82.6347 76.8624C81.988 77.1738 81.2694 77.3414 80.5508 77.3414C79.976 77.3414 79.4011 77.2456 78.8742 77.03C78.7065 76.9582 78.6107 76.7665 78.6826 76.5989C78.7544 76.4312 78.946 76.3354 79.1137 76.4073C80.1436 76.7905 81.3412 76.7426 82.3233 76.2636C82.4909 76.1917 82.7065 76.2636 82.7784 76.4312C82.8742 76.5749 82.8023 76.7905 82.6347 76.8624ZM78.9221 74.8025C78.9221 74.6109 79.0898 74.4672 79.2814 74.4911C80.2874 74.539 81.3412 74.3713 82.2754 73.9642C82.443 73.8923 82.6586 73.9642 82.7305 74.1558C82.8023 74.3234 82.7305 74.539 82.5388 74.6109C81.6287 74.9941 80.6227 75.1857 79.6407 75.1857C79.5209 75.1857 79.3772 75.1857 79.2574 75.1857C79.0658 75.1378 78.9221 74.9701 78.9221 74.8025ZM79.4011 105.102C79.449 105.293 79.3532 105.461 79.1616 105.533C78.9221 105.605 78.6826 105.629 78.4191 105.629C77.7963 105.629 77.1257 105.437 76.4311 105.054C76.0957 104.862 75.7604 104.647 75.449 104.431C75.0419 104.168 74.6586 103.904 74.2514 103.713C73.6047 103.401 72.8622 103.353 71.9999 103.545C71.8083 103.593 71.6407 103.473 71.5928 103.305C71.5449 103.114 71.6646 102.946 71.8323 102.898C72.8383 102.659 73.7484 102.731 74.5389 103.114C74.9939 103.329 75.4011 103.617 75.8083 103.88C76.1197 104.072 76.4311 104.287 76.7424 104.455C77.3173 104.767 78.1556 105.102 78.946 104.886C79.1377 104.814 79.3293 104.91 79.4011 105.102Z" fill="#C5AB90"/>
<path d="M41.3413 27.8083C44.4551 27.4491 46.3233 25.5568 46.6826 22.467H46.8263C47.1856 25.5808 49.0778 27.4491 52.1677 27.8083V27.9521C49.0778 28.3113 47.1856 30.2036 46.8263 33.2934H46.6826C46.3233 30.2036 44.4311 28.3113 41.3413 27.9521V27.8083ZM56.8623 24.2155H56.9102C57.0299 23.2096 57.6287 22.6108 58.6347 22.491V22.4431C57.6287 22.3233 57.0299 21.7245 56.9102 20.7185H56.8623C56.7425 21.7245 56.1437 22.3233 55.1377 22.4431V22.491C56.1437 22.6108 56.7425 23.2096 56.8623 24.2155ZM57.5569 30.8742H57.509C57.3892 31.8802 56.7904 32.479 55.7844 32.5988V32.6467C56.7904 32.7664 57.3892 33.3652 57.509 34.3712H57.5569C57.6766 33.3652 58.2754 32.7664 59.2814 32.6467V32.5988C58.2994 32.479 57.6766 31.8802 57.5569 30.8742ZM65.9401 23.2335H66.0119C66.2036 21.7006 67.1137 20.7904 68.6467 20.5988V20.5269C67.1137 20.3353 66.2036 19.4251 66.0119 17.8922H65.9401C65.7485 19.4251 64.8383 20.3353 63.3054 20.5269V20.5988C64.8383 20.7904 65.7485 21.7245 65.9401 23.2335ZM59.8563 5.96407H59.9281C60.0958 4.62276 60.9102 3.78442 62.2515 3.6407V3.56886C60.9102 3.4012 60.0718 2.58681 59.9281 1.2455H59.8563C59.6886 2.58681 58.8742 3.42515 57.5329 3.56886V3.6407C58.8742 3.80837 59.6886 4.62276 59.8563 5.96407ZM75.2574 14.7545H75.3293C75.5209 13.2215 76.4311 12.3114 77.964 12.1197V12.0479C76.4311 11.8563 75.5209 10.9461 75.3293 9.41315H75.2574C75.0658 10.9461 74.1557 11.8563 72.6227 12.0479V12.1197C74.1557 12.3114 75.0898 13.2215 75.2574 14.7545ZM48 15.1856V15.2096C48.6946 15.3054 49.1257 15.7126 49.2215 16.4311H49.2455C49.3413 15.7365 49.7485 15.3054 50.4671 15.2096V15.1856C49.7724 15.0898 49.3413 14.6826 49.2455 13.964H49.2215C49.1257 14.6826 48.7186 15.1138 48 15.1856ZM47.976 2.46705H48C48.0958 1.77244 48.503 1.3413 49.2215 1.2455V1.22155C48.5269 1.12574 48.0958 0.718562 48 0H47.976C47.8802 0.69461 47.473 1.12574 46.7545 1.22155V1.2455C47.473 1.3413 47.9042 1.77244 47.976 2.46705ZM40.4072 12.3114H40.479C40.6707 10.6587 41.6766 9.65269 43.3293 9.46107V9.3892C41.6766 9.19758 40.6707 8.19159 40.479 6.5389H40.4072C40.2156 8.19159 39.2096 9.19758 37.5569 9.3892V9.46107C39.2096 9.65269 40.2156 10.6587 40.4072 12.3114ZM70.2036 27.1856H70.2275C70.3233 26.491 70.7305 26.0599 71.4491 25.9641V25.9401C70.7545 25.8443 70.3233 25.4371 70.2275 24.7185H70.2036C70.1077 25.4131 69.7006 25.8443 68.982 25.9401V25.9641C69.7006 26.0599 70.1317 26.491 70.2036 27.1856ZM36.8862 21.0539H36.9341C37.0539 20.0479 37.6527 19.4491 38.6587 19.3293V19.2814C37.6527 19.1617 37.0539 18.5628 36.9341 17.5569H36.8862C36.7665 18.5628 36.1677 19.1617 35.1617 19.2814V19.3293C36.1677 19.4491 36.7665 20.0479 36.8862 21.0539ZM24.3114 19.3054H24.3832C24.5749 17.7724 25.485 16.8623 27.018 16.6706V16.5988C25.485 16.4072 24.5749 15.497 24.3832 13.964H24.3114C24.1198 15.497 23.2096 16.4072 21.6767 16.5988V16.6706C23.2096 16.8623 24.1198 17.7724 24.3114 19.3054ZM26.9701 8.62275H27.0419C27.2335 7.08981 28.1437 6.17963 29.6767 5.98802V5.91615C28.1437 5.72453 27.2335 4.81435 27.0419 3.28142H26.9701C26.7785 4.81435 25.8683 5.72453 24.3353 5.91615V5.98802C25.8683 6.17963 26.8024 7.11377 26.9701 8.62275ZM56.8623 13.3173H56.8862C56.982 12.6227 57.3892 12.1916 58.1078 12.0958V12.0718C57.4132 11.976 56.982 11.5688 56.8862 10.8503H56.8623C56.7664 11.5449 56.3593 11.976 55.6407 12.0718V12.0958C56.3593 12.1916 56.7664 12.6227 56.8623 13.3173ZM31.0898 15.2096H31.1138C31.2096 14.515 31.6168 14.0838 32.3353 13.988V13.964C31.6407 13.8682 31.2096 13.4611 31.1138 12.7425H31.0898C30.994 13.4371 30.5868 13.8682 29.8683 13.964V13.988C30.5868 14.0838 30.994 14.515 31.0898 15.2096ZM32.2395 29.0778C33.2934 29.1976 33.9162 29.8443 34.0359 30.8742H34.0838C34.2036 29.8203 34.8503 29.1976 35.8802 29.0778V29.0299C34.8264 28.9101 34.2036 28.2634 34.0838 27.2335H34.0359C33.9162 28.2874 33.2695 28.9101 32.2395 29.0299V29.0778ZM49.8204 59.2814C30.6347 59.2814 15.0898 43.7365 15.0898 24.5509C15.0898 21.1257 15.5928 17.8203 16.503 14.6826C20.7425 29.0538 34.0599 39.5688 49.8204 39.5688C65.5808 39.5688 78.8742 29.0778 83.1377 14.6826C84.0718 17.8203 84.5508 21.1257 84.5508 24.5509C84.5508 43.7125 69.006 59.2814 49.8204 59.2814ZM30.8503 41.7964C30.8503 39.3293 28.8623 37.3413 26.3952 37.3413C26.1078 37.3413 25.8204 37.3652 25.5329 37.4131C27.5928 37.8203 29.1497 39.6167 29.1497 41.7964C29.1497 43.976 27.5928 45.7724 25.5329 46.1796C25.7964 46.2275 26.0838 46.2514 26.3952 46.2514C28.8383 46.2514 30.8503 44.2634 30.8503 41.7964ZM41.4371 46.2514C41.4371 43.7844 39.4491 41.7964 36.982 41.7964C36.1677 41.7964 35.4012 42.0119 34.7545 42.3952C36.0958 43.1616 36.982 44.5988 36.982 46.2514C36.982 47.9041 36.0958 49.3413 34.7545 50.1077C35.4012 50.491 36.1677 50.7065 36.982 50.7065C39.4251 50.7065 41.4371 48.7185 41.4371 46.2514ZM54.2515 49.8682C54.2515 47.4011 52.2635 45.4131 49.7964 45.4131C47.3293 45.4131 45.3413 47.4011 45.3413 49.8682C45.3413 52.3353 47.3293 54.3233 49.7964 54.3233C52.2395 54.3233 54.2515 52.3353 54.2515 49.8682ZM62.5868 46.2514C62.5868 44.5988 63.473 43.1616 64.8143 42.3952C64.1676 42.0119 63.4012 41.7964 62.5868 41.7964C60.1197 41.7964 58.1317 43.7844 58.1317 46.2514C58.1317 48.7185 60.1197 50.7065 62.5868 50.7065C63.4012 50.7065 64.1676 50.491 64.8143 50.1077C63.497 49.3413 62.5868 47.9041 62.5868 46.2514ZM70.5149 41.7964C70.5149 39.6167 72.0718 37.8203 74.1317 37.4131C73.8682 37.3652 73.5808 37.3413 73.2694 37.3413C70.8024 37.3413 68.8143 39.3293 68.8143 41.7964C68.8143 44.2634 70.8024 46.2514 73.2694 46.2514C73.5569 46.2514 73.8443 46.2275 74.1317 46.1796C72.0479 45.7724 70.5149 43.952 70.5149 41.7964Z" fill="#C5AB90"/>
</svg>
