<svg width="30" height="30" viewBox="0 0 30 30" fill="none" xmlns="http://www.w3.org/2000/svg">
<path d="M15 12.5C15.3315 12.5 15.6495 12.6317 15.8839 12.8661C16.1183 13.1005 16.25 13.4185 16.25 13.75V21.25C16.25 21.5815 16.1183 21.8995 15.8839 22.1339C15.6495 22.3683 15.3315 22.5 15 22.5C14.6685 22.5 14.3505 22.3683 14.1161 22.1339C13.8817 21.8995 13.75 21.5815 13.75 21.25V13.75C13.75 13.4185 13.8817 13.1005 14.1161 12.8661C14.3505 12.6317 14.6685 12.5 15 12.5Z" fill="#C5AB90"/>
<path d="M15 10.625C15.2462 10.625 15.4901 10.5765 15.7175 10.4823C15.945 10.388 16.1517 10.2499 16.3258 10.0758C16.4999 9.90172 16.638 9.69502 16.7323 9.46753C16.8265 9.24005 16.875 8.99623 16.875 8.75C16.875 8.50377 16.8265 8.25995 16.7323 8.03247C16.638 7.80498 16.4999 7.59828 16.3258 7.42417C16.1517 7.25006 15.945 7.11195 15.7175 7.01773C15.4901 6.9235 15.2462 6.875 15 6.875C14.5034 6.875 14.0271 7.07228 13.6759 7.42344C13.3248 7.7746 13.1275 8.25088 13.1275 8.7475C13.1275 9.24412 13.3248 9.7204 13.6759 10.0716C14.0271 10.4227 14.5034 10.62 15 10.62V10.625Z" fill="#C5AB90"/>
<path d="M0 15C-2.93527e-08 13.0302 0.387986 11.0796 1.14181 9.25975C1.89563 7.43986 3.00052 5.78628 4.3934 4.3934C5.78628 3.00052 7.43986 1.89563 9.25975 1.14181C11.0796 0.387987 13.0302 0 15 0C16.9698 0 18.9204 0.387987 20.7403 1.14181C22.5601 1.89563 24.2137 3.00052 25.6066 4.3934C26.9995 5.78628 28.1044 7.43986 28.8582 9.25975C29.612 11.0796 30 13.0302 30 15C30 18.9782 28.4196 22.7936 25.6066 25.6066C22.7936 28.4196 18.9782 30 15 30C11.0218 30 7.20644 28.4196 4.3934 25.6066C1.58035 22.7936 5.92805e-08 18.9782 0 15V15ZM15 2.5C11.6848 2.5 8.50537 3.81696 6.16117 6.16117C3.81696 8.50537 2.5 11.6848 2.5 15C2.5 18.3152 3.81696 21.4946 6.16117 23.8388C8.50537 26.183 11.6848 27.5 15 27.5C18.3152 27.5 21.4946 26.183 23.8388 23.8388C26.183 21.4946 27.5 18.3152 27.5 15C27.5 11.6848 26.183 8.50537 23.8388 6.16117C21.4946 3.81696 18.3152 2.5 15 2.5V2.5Z" fill="#C5AB90"/>
</svg>
